<?xml version="1.0" encoding="UTF-8" standalone="no"?>
<svg
   xmlns:dc="http://purl.org/dc/elements/1.1/"
   xmlns:cc="http://creativecommons.org/ns#"
   xmlns:rdf="http://www.w3.org/1999/02/22-rdf-syntax-ns#"
   xmlns:svg="http://www.w3.org/2000/svg"
   xmlns="http://www.w3.org/2000/svg"
   viewBox="0 0 407.83389 405.19998"
   height="405.19998"
   width="407.83389"
   xml:space="preserve"
   id="svg2"
   version="1.1"><metadata
     id="metadata8"><rdf:RDF><cc:Work
         rdf:about=""><dc:format>image/svg+xml</dc:format><dc:type
           rdf:resource="http://purl.org/dc/dcmitype/StillImage" /><dc:title></dc:title></cc:Work></rdf:RDF></metadata><defs
     id="defs6"><clipPath
       id="clipPath20"
       clipPathUnits="userSpaceOnUse"><path
         id="path18"
         d="M 0,0 H 306 V 304 H 0 Z" /></clipPath><clipPath
       id="clipPath38"
       clipPathUnits="userSpaceOnUse"><path
         id="path36"
         d="M 0,0 H 306 V 304 H 0 Z" /></clipPath><clipPath
       id="clipPath56"
       clipPathUnits="userSpaceOnUse"><path
         id="path54"
         d="M 0,0 H 306 V 304 H 0 Z" /></clipPath><clipPath
       id="clipPath74"
       clipPathUnits="userSpaceOnUse"><path
         id="path72"
         d="M 0,0 H 306 V 304 H 0 Z" /></clipPath><clipPath
       id="clipPath92"
       clipPathUnits="userSpaceOnUse"><path
         id="path90"
         d="M 0,0 H 306 V 304 H 0 Z" /></clipPath><clipPath
       id="clipPath110"
       clipPathUnits="userSpaceOnUse"><path
         id="path108"
         d="M 0,0 H 306 V 304 H 0 Z" /></clipPath><clipPath
       id="clipPath128"
       clipPathUnits="userSpaceOnUse"><path
         id="path126"
         d="M 0,0 H 306 V 304 H 0 Z" /></clipPath><clipPath
       id="clipPath146"
       clipPathUnits="userSpaceOnUse"><path
         id="path144"
         d="M 0,0 H 306 V 304 H 0 Z" /></clipPath><clipPath
       id="clipPath164"
       clipPathUnits="userSpaceOnUse"><path
         id="path162"
         d="M 0,0 H 306 V 304 H 0 Z" /></clipPath><clipPath
       id="clipPath182"
       clipPathUnits="userSpaceOnUse"><path
         id="path180"
         d="M 0,0 H 306 V 304 H 0 Z" /></clipPath><clipPath
       id="clipPath200"
       clipPathUnits="userSpaceOnUse"><path
         id="path198"
         d="M 0,0 H 306 V 304 H 0 Z" /></clipPath><clipPath
       id="clipPath218"
       clipPathUnits="userSpaceOnUse"><path
         id="path216"
         d="M 0,0 H 306 V 304 H 0 Z" /></clipPath><clipPath
       id="clipPath236"
       clipPathUnits="userSpaceOnUse"><path
         id="path234"
         d="M 0,0 H 306 V 304 H 0 Z" /></clipPath><clipPath
       id="clipPath254"
       clipPathUnits="userSpaceOnUse"><path
         id="path252"
         d="M 0,0 H 306 V 304 H 0 Z" /></clipPath><clipPath
       id="clipPath272"
       clipPathUnits="userSpaceOnUse"><path
         id="path270"
         d="M 0,0 H 306 V 304 H 0 Z" /></clipPath><clipPath
       id="clipPath290"
       clipPathUnits="userSpaceOnUse"><path
         id="path288"
         d="M 0,0 H 306 V 304 H 0 Z" /></clipPath><clipPath
       id="clipPath308"
       clipPathUnits="userSpaceOnUse"><path
         id="path306"
         d="M 0,0 H 306 V 304 H 0 Z" /></clipPath><clipPath
       id="clipPath326"
       clipPathUnits="userSpaceOnUse"><path
         id="path324"
         d="M 0,0 H 306 V 304 H 0 Z" /></clipPath><clipPath
       id="clipPath346"
       clipPathUnits="userSpaceOnUse"><path
         id="path344"
         d="M 0,0 H 306 V 304 H 0 Z" /></clipPath></defs><g
     transform="matrix(1.3333333,0,0,1.3333333,0,8.1299998e-6)"
     id="g10"><g
       id="g12"><g
         id="g14"><g
           id="g16" /><g
           id="g30"><g
             id="g28"
             clip-path="url(#clipPath20)"><g
               id="g26"><g
                 id="g24"
                 transform="scale(1,-1)"><path
                   id="path22"
                   style="fill:none;stroke:#0000ff;stroke-width:1.5;stroke-linecap:square;stroke-linejoin:round;stroke-miterlimit:10;stroke-dasharray:none;stroke-opacity:0.3"
                   d="m 218.824,-151.949 -0.832,4.066 -1.246,3.942 -1.625,3.777 -1.969,3.578 -2.269,3.344 -2.528,3.094 -2.742,2.828 -2.91,2.554 -3.039,2.282 -3.133,2.007 -3.187,1.743 -3.215,1.488 -3.211,1.254 -3.188,1.027 -3.148,0.824 -3.09,0.641 -4.512,0.641 -4.343,0.316 -4.168,0.043 -4,-0.191 -3.84,-0.395 -3.695,-0.574 -3.575,-0.738 -3.464,-0.899 -3.368,-1.066 -3.281,-1.25 -3.184,-1.446 -3.074,-1.664 -2.945,-1.91 -2.77,-2.172 -1.726,-1.597 -1.609,-1.715 -1.477,-1.836 -1.328,-1.949 -1.156,-2.047 -0.973,-2.137 -0.777,-2.211 -0.571,-2.265 -0.363,-2.297 -0.156,-2.305 0.051,-2.301 0.246,-2.265 0.425,-2.219 0.59,-2.156 0.735,-2.083 1.339,-2.96 1.559,-2.762 1.719,-2.563 1.836,-2.386 2.57,-2.942 3.34,-3.394 3.492,-3.227 3.719,-3.168 4.09,-3.191 3.672,-2.571 3.05,-1.918 3.364,-1.867 3.703,-1.773 4.086,-1.606 2.937,-0.945 3.11,-0.801 3.277,-0.636 3.433,-0.438 3.571,-0.203 3.683,0.062 3.766,0.36 3.805,0.683 3.804,1.032 3.754,1.394 3.653,1.77 3.488,2.144 3.269,2.512 1.536,1.387 1.461,1.472 1.382,1.551 1.293,1.629 1.203,1.703 1.106,1.77 1,1.828 0.898,1.883 0.786,1.933 0.675,1.977 0.559,2.011 0.441,2.04 0.328,2.062 0.207,2.074 0.094,2.086 -0.027,2.082 -0.137,2.078 -0.254,2.067" /></g></g></g></g></g><g
         id="g32"><g
           id="g34" /><g
           id="g48"><g
             id="g46"
             clip-path="url(#clipPath38)"><g
               id="g44"><g
                 id="g42"
                 transform="scale(1,-1)"><path
                   id="path40"
                   style="fill:none;stroke:#008000;stroke-width:1.5;stroke-linecap:square;stroke-linejoin:round;stroke-miterlimit:10;stroke-dasharray:none;stroke-opacity:0.3"
                   d="m 208.668,-151.949 2.684,3.652 2.433,3.985 2.141,4.3 1.797,4.59 0.757,2.391 0.657,2.453 0.551,2.508 0.441,2.554 0.328,2.598 0.211,2.637 0.09,2.668 -0.031,2.695 -0.157,2.711 -0.285,2.727 -0.414,2.73 -0.543,2.73 -0.676,2.719 -0.804,2.707 -0.934,2.688 -1.066,2.656 -1.196,2.621 -1.324,2.578 -1.449,2.531 -1.574,2.477 -1.692,2.41 -1.812,2.348 -1.93,2.269 -2.035,2.192 -2.148,2.105 -2.247,2.016 -2.347,1.918 -2.442,1.816 -2.527,1.707 -2.613,1.602 -2.688,1.484 -2.762,1.367 -2.824,1.243 -2.886,1.117 -2.938,0.988 -2.984,0.859 -3.024,0.723 -3.058,0.586 -3.082,0.449 -3.102,0.309 -3.113,0.168 -3.117,0.027 -3.118,-0.117 -3.105,-0.258 -3.086,-0.402 -3.063,-0.543 -3.031,-0.684 -2.988,-0.824 -2.941,-0.965 -2.891,-1.097 -2.824,-1.235 -2.754,-1.367 -2.68,-1.492 -2.594,-1.617 -2.5,-1.743 -2.406,-1.855 -2.301,-1.969 -2.187,-2.078 -2.074,-2.176 -1.95,-2.273 -1.82,-2.36 -1.691,-2.445 -1.551,-2.515 -1.406,-2.586 -1.266,-2.645 -1.113,-2.699 -0.965,-2.735 -0.817,-2.773 -0.656,-2.797 -0.508,-2.812 -0.355,-2.817 -0.199,-2.812 -0.055,-2.805 0.094,-2.777 0.234,-2.75 0.371,-2.711 0.508,-2.66 0.629,-2.606 0.754,-2.543 0.863,-2.472 0.965,-2.395 1.066,-2.312 1.149,-2.227 2.527,-4.172 2.77,-3.785 2.933,-3.383 3.032,-2.98 3.066,-2.586 3.047,-2.219 2.973,-1.871 2.867,-1.559 2.73,-1.277 3.805,-1.473 3.418,-1.035 3.035,-0.707 3.488,-0.59 4.805,-0.531 4.566,-0.535 2.586,-0.567 2.614,-0.832 7.386,-2.523 3.168,-0.77 2.754,-0.464 3.106,-0.301 3.472,-0.055 2.516,0.141 2.676,0.312 2.816,0.512 2.949,0.742 3.059,0.996 3.144,1.278 3.2,1.578 3.222,1.906 3.203,2.242 3.141,2.594 3.039,2.949 2.883,3.305" /></g></g></g></g></g><g
         id="g50"><g
           id="g52" /><g
           id="g66"><g
             id="g64"
             clip-path="url(#clipPath56)"><g
               id="g62"><g
                 id="g60"
                 transform="scale(1,-1)"><path
                   id="path58"
                   style="fill:none;stroke:#ff0000;stroke-width:1.5;stroke-linecap:square;stroke-linejoin:round;stroke-miterlimit:10;stroke-dasharray:none;stroke-opacity:0.3"
                   d="m 183.484,-151.949 -2.152,1.773 -3.102,2.207 -2.91,1.731 -2.675,1.34 -3.192,1.312 -3.398,1.109 -8.762,2.563 -2.27,1.086 -3.531,2.019 -3.566,1.985 -3.102,1.492 -2.832,1.152 -3.344,1.114 -3.929,0.988 -2.965,0.535 -3.258,0.391 -3.543,0.199 -3.828,-0.039 -4.086,-0.324 -4.32,-0.668 -4.504,-1.059 -4.633,-1.496 -2.344,-0.918 -2.351,-1.047 -2.352,-1.168 -2.336,-1.297 -2.308,-1.426 -2.278,-1.554 -2.23,-1.684 -2.176,-1.816 -2.105,-1.942 -2.032,-2.066 -1.941,-2.188 -1.84,-2.304 -1.734,-2.418 -1.617,-2.52 -1.493,-2.621 -1.359,-2.715 -1.219,-2.8 -1.074,-2.875 -0.922,-2.942 -0.766,-3.004 -0.609,-3.054 -0.441,-3.098 -0.278,-3.129 -0.109,-3.152 0.055,-3.168 0.226,-3.172 0.395,-3.168 0.562,-3.153 0.723,-3.132 0.891,-3.102 1.05,-3.066 1.207,-3.016 1.36,-2.961 1.511,-2.898 1.657,-2.832 1.8,-2.75 1.934,-2.672 2.066,-2.578 2.192,-2.485 2.308,-2.379 2.426,-2.273 2.531,-2.16 2.633,-2.043 2.727,-1.918 2.812,-1.797 2.899,-1.66 2.969,-1.531 3.039,-1.391 3.093,-1.25 3.149,-1.106 3.195,-0.96 3.227,-0.813 3.261,-0.664 3.282,-0.516 3.293,-0.359 3.3,-0.211 3.301,-0.055 3.289,0.098 3.27,0.246 3.246,0.402 3.215,0.547 3.172,0.7 3.121,0.843 3.066,0.989 3.004,1.125 2.93,1.265 2.855,1.395 2.77,1.527 2.675,1.649 2.579,1.765 2.476,1.883 2.367,1.988 2.25,2.09 2.133,2.18 2.008,2.269 1.879,2.348 1.75,2.418 1.617,2.484 1.481,2.539 1.343,2.582 1.203,2.625 1.067,2.653 0.926,2.672 0.789,2.687 0.656,2.692 0.519,2.687 0.387,2.672 0.262,2.652 0.137,2.629 0.019,2.59 -0.301,5.047 -0.718,4.832 -1.079,4.578 -1.394,4.281 -1.656,3.973 -1.86,3.644 -2.011,3.309 -2.122,2.973 -2.183,2.652 -2.203,2.34 -2.192,2.047" /></g></g></g></g></g><g
         id="g68"><g
           id="g70" /><g
           id="g84"><g
             id="g82"
             clip-path="url(#clipPath74)"><g
               id="g80"><g
                 id="g78"
                 transform="scale(1,-1)"><path
                   id="path76"
                   style="fill:none;stroke:#0000ff;stroke-width:1.5;stroke-linecap:square;stroke-linejoin:round;stroke-miterlimit:10;stroke-dasharray:none;stroke-opacity:0.37000002"
                   d="m 231.762,-151.949 -1.293,2.422 -1.477,2.332 -1.648,2.234 -1.801,2.125 -1.941,2.008 -2.059,1.883 -2.16,1.754 -2.246,1.621 -2.309,1.488 -2.363,1.352 -2.399,1.218 -2.418,1.086 -2.421,0.961 -4.813,1.551 -4.699,1.105 -4.508,0.704 -4.269,0.363 -4,0.078 -3.704,-0.152 -3.406,-0.329 -4.558,-0.726 -3.942,-0.895 -4.422,-1.281 -5.23,-1.808 -5.352,-1.825 -2.949,-0.754 -2.965,-0.523 -7.531,-1.113 -2.34,-0.594 -2.355,-0.875 -1.516,-0.785 -1.402,-0.965 -1.227,-1.156 -0.984,-1.34 -0.684,-1.504 -0.332,-1.625 0.035,-1.695 0.391,-1.703 0.715,-1.657 0.984,-1.558 1.18,-1.422 1.304,-1.27 2.059,-1.597 2.023,-1.266 2.469,-1.27 5.934,-2.851 1.129,-0.867 1.035,-1.067 1.312,-1.738 4.922,-7.027 2.137,-2.571 2.762,-2.922 2.269,-2.117 2.664,-2.222 3.102,-2.289 3.578,-2.289 4.07,-2.219 4.563,-2.055 2.457,-0.93 2.57,-0.847 2.672,-0.75 2.762,-0.637 2.84,-0.512 2.906,-0.367 2.953,-0.215 2.976,-0.047 2.989,0.133 2.969,0.317 2.933,0.511 2.871,0.711 2.785,0.907 2.676,1.109 2.543,1.305 2.391,1.492 2.215,1.676 2.023,1.847 1.813,2 1.589,2.149 1.352,2.273 1.105,2.379 0.856,2.473 0.601,2.539 0.34,2.59 0.09,2.625 -0.168,2.632 -0.41,2.625 -0.648,2.598 -0.875,2.555 -1.09,2.496" /></g></g></g></g></g><g
         id="g86"><g
           id="g88" /><g
           id="g102"><g
             id="g100"
             clip-path="url(#clipPath92)"><g
               id="g98"><g
                 id="g96"
                 transform="scale(1,-1)"><path
                   id="path94"
                   style="fill:none;stroke:#008000;stroke-width:1.5;stroke-linecap:square;stroke-linejoin:round;stroke-miterlimit:10;stroke-dasharray:none;stroke-opacity:0.37000002"
                   d="m 209.336,-151.949 2.48,1.836 2.442,1.996 2.387,2.152 2.316,2.301 2.23,2.457 2.137,2.598 2.024,2.742 1.898,2.875 1.762,3.004 1.613,3.121 1.453,3.226 1.285,3.332 1.106,3.414 0.918,3.493 0.722,3.558 0.528,3.614 0.32,3.652 0.113,3.68 -0.093,3.695 -0.305,3.699 -0.516,3.692 -0.722,3.671 -0.93,3.641 -1.133,3.598 -1.336,3.547 -1.531,3.48 -1.719,3.406 -1.906,3.328 -2.086,3.235 -2.258,3.136 -2.426,3.032 -2.582,2.922 -2.73,2.796 -2.879,2.676 -3.012,2.543 -3.14,2.406 -3.258,2.266 -3.371,2.121 -3.477,1.973 -3.57,1.824 -3.656,1.664 -3.739,1.508 -3.808,1.348 -3.871,1.183 -3.926,1.02 -3.969,0.851 -4.012,0.684 -4.039,0.515 -4.062,0.344 -4.074,0.176 h -4.082 l -4.079,-0.172 -4.07,-0.344 -4.047,-0.519 -4.019,-0.692 -3.981,-0.867 -3.937,-1.039 -3.879,-1.211 -3.817,-1.383 -3.742,-1.558 -3.66,-1.727 -3.562,-1.894 -3.457,-2.067 -3.344,-2.234 -3.215,-2.398 -3.074,-2.559 -2.922,-2.723 -2.758,-2.879 -2.578,-3.031 -2.387,-3.18 -2.176,-3.328 -1.96,-3.461 -1.723,-3.593 -1.473,-3.711 -1.207,-3.828 -0.93,-3.922 -0.636,-4.012 -0.336,-4.082 -0.024,-4.137 0.297,-4.172 0.617,-4.183 0.942,-4.18 1.265,-4.141 1.575,-4.089 1.875,-4 2.16,-3.895 2.414,-3.758 2.652,-3.597 2.848,-3.422 3.016,-3.219 3.144,-3.004 3.231,-2.781 3.285,-2.547 3.297,-2.309 3.273,-2.074 3.215,-1.844 3.133,-1.621 3.023,-1.406 2.891,-1.211 5.336,-1.89 4.687,-1.29 4.027,-0.816 3.395,-0.469 4.039,-0.254 2.988,0.059 2.77,0.297 2.453,0.512 2.484,0.558 0.426,-0.199 0.715,-0.695 1.688,-1.633 1.418,-1.098 2.113,-1.308 2.199,-1.075 2.84,-1.066 2.301,-0.649 2.652,-0.554 3.019,-0.403 3.387,-0.203 3.75,0.067 4.098,0.398 4.41,0.789 4.676,1.242 2.418,0.813 2.465,0.941 2.492,1.082 2.515,1.227 2.528,1.379 2.523,1.527 2.512,1.684" /></g></g></g></g></g><g
         id="g104"><g
           id="g106" /><g
           id="g120"><g
             id="g118"
             clip-path="url(#clipPath110)"><g
               id="g116"><g
                 id="g114"
                 transform="scale(1,-1)"><path
                   id="path112"
                   style="fill:none;stroke:#ff0000;stroke-width:1.5;stroke-linecap:square;stroke-linejoin:round;stroke-miterlimit:10;stroke-dasharray:none;stroke-opacity:0.37000002"
                   d="m 169.879,-151.949 -2.453,0.906 -3.117,0.883 -2.5,0.472 -2.532,0.235 -2.164,-0.039 -2.14,-0.301 -1.153,-0.117 -0.39,0.168 -0.496,0.504 -2.016,2.34 -1.613,1.507 -1.871,1.481 -2.707,1.816 -2.426,1.395 -3.047,1.511 -3.781,1.59 -4.618,1.586 -5.531,1.469 -3.121,0.648 -3.359,0.563 -3.586,0.453 -3.801,0.32 -4.004,0.161 -4.18,-0.016 -4.328,-0.227 -4.441,-0.449 -4.52,-0.691 -4.558,-0.949 -4.551,-1.215 -4.508,-1.493 -4.414,-1.769 -4.285,-2.039 -4.121,-2.309 -3.914,-2.562 -3.688,-2.805 -3.433,-3.027 -3.157,-3.235 -2.867,-3.421 -2.566,-3.583 -2.254,-3.726 -1.949,-3.852 -1.637,-3.953 -1.328,-4.031 -1.024,-4.098 -0.73,-4.144 -0.438,-4.172 -0.16,-4.184 0.11,-4.183 0.371,-4.172 0.625,-4.149 0.859,-4.105 1.094,-4.063 1.312,-4.007 1.528,-3.942 1.722,-3.867 1.922,-3.789 2.102,-3.699 2.277,-3.606 2.446,-3.508 2.601,-3.402 2.754,-3.289 2.898,-3.176 3.036,-3.054 3.164,-2.93 3.285,-2.797 3.398,-2.664 3.508,-2.527 3.609,-2.383 3.704,-2.235 3.789,-2.085 3.867,-1.934 3.945,-1.774 4.008,-1.617 4.066,-1.449 4.118,-1.281 4.16,-1.11 4.199,-0.937 4.226,-0.762 4.247,-0.582 4.261,-0.398 4.262,-0.211 4.258,-0.024 4.246,0.164 4.219,0.356 4.191,0.555 4.145,0.746 4.089,0.945 4.028,1.141 3.949,1.34 3.867,1.539 3.766,1.734 3.656,1.934 3.535,2.128 3.399,2.317 3.25,2.508 3.089,2.691 2.918,2.871 2.735,3.039 2.535,3.203 2.328,3.356 2.11,3.496 1.882,3.629 1.645,3.746 1.398,3.844 1.153,3.929 0.902,3.996 0.644,4.043 0.395,4.075 0.141,4.078 -0.106,4.07 -0.34,4.035 -0.57,3.981 -0.789,3.906 -0.988,3.816 -1.172,3.707 -1.344,3.579 -1.492,3.437 -1.625,3.285 -1.734,3.121 -1.821,2.953 -1.894,2.774 -1.946,2.594 -1.972,2.414 -1.993,2.23 -3.96,3.934 -3.844,3.261 -3.645,2.645 -3.379,2.102 -3.086,1.628 -2.769,1.235" /></g></g></g></g></g><g
         id="g122"><g
           id="g124" /><g
           id="g138"><g
             id="g136"
             clip-path="url(#clipPath128)"><g
               id="g134"><g
                 id="g132"
                 transform="scale(1,-1)"><path
                   id="path130"
                   style="fill:none;stroke:#0000ff;stroke-width:1.5;stroke-linecap:square;stroke-linejoin:round;stroke-miterlimit:10;stroke-dasharray:none;stroke-opacity:0.43999999"
                   d="m 242.191,-151.949 -2.48,2.707 -2.734,2.547 -2.961,2.359 -3.149,2.168 -3.301,1.961 -3.414,1.754 -3.496,1.543 -3.547,1.332 -3.554,1.125 -3.543,0.93 -3.5,0.738 -3.434,0.562 -3.344,0.395 -3.238,0.246 -3.113,0.109 -5.824,-0.129 -5.231,-0.5 -4.629,-0.761 -4.039,-0.93 -3.48,-1.023 -2.981,-1.055 -3.64,-1.547 -2.829,-1.43 -3.375,-1.996 -4.683,-2.886 -1,-0.325 -1.016,-0.117 -1.465,0.117 -6.343,0.938 -2.11,-0.031 -1.433,-0.211 -1.34,-0.414 -1.113,-0.657 -0.43,-0.422 -0.317,-0.48 -0.195,-0.527 -0.066,-0.575 0.074,-0.605 0.203,-0.621 0.777,-1.25 1.161,-1.172 1.394,-1.023 1.481,-0.844 2.144,-0.926 2.414,-0.727 2.512,-0.468 2.394,-0.399 0.477,-0.293 0.359,-0.496 0.52,-1.254 1.18,-2.902 1.261,-2.465 1.535,-2.504 1.434,-2.043 1.875,-2.379 2.422,-2.726 3.086,-3.071 3.875,-3.371 2.266,-1.773 2.496,-1.813 2.738,-1.832 2.98,-1.824 3.223,-1.797 3.457,-1.734 3.676,-1.637 3.875,-1.508 4.051,-1.343 4.183,-1.145 4.285,-0.906 4.34,-0.641 4.344,-0.351 4.297,-0.035 4.195,0.289 4.043,0.628 3.84,0.961 3.59,1.293 3.293,1.61 2.961,1.91 2.593,2.183 2.207,2.43 1.793,2.641 1.372,2.824 0.937,2.969 0.504,3.074 0.074,3.145 -0.347,3.179 -0.758,3.176 -1.153,3.141 -1.523,3.074 -1.871,2.98 -2.192,2.856" /></g></g></g></g></g><g
         id="g140"><g
           id="g142" /><g
           id="g156"><g
             id="g154"
             clip-path="url(#clipPath146)"><g
               id="g152"><g
                 id="g150"
                 transform="scale(1,-1)"><path
                   id="path148"
                   style="fill:none;stroke:#008000;stroke-width:1.5;stroke-linecap:square;stroke-linejoin:round;stroke-miterlimit:10;stroke-dasharray:none;stroke-opacity:0.43999999"
                   d="m 206.957,-151.949 3.41,1.793 3.414,2.011 3.391,2.227 3.344,2.449 3.269,2.668 3.164,2.879 3.031,3.082 2.875,3.278 2.692,3.46 2.484,3.625 2.258,3.774 2.012,3.906 1.75,4.024 1.476,4.113 1.192,4.191 0.906,4.242 0.609,4.274 0.317,4.293 0.023,4.289 -0.265,4.269 -0.551,4.231 -0.828,4.183 -1.094,4.114 -1.356,4.039 -1.605,3.949 -1.84,3.852 -2.07,3.738 -2.285,3.625 -2.492,3.5 -2.684,3.371 -2.863,3.234 -3.036,3.09 -3.195,2.949 -3.344,2.801 -3.48,2.645 -3.613,2.492 -3.727,2.336 -3.84,2.176 -3.937,2.015 -4.031,1.852 -4.11,1.687 -4.187,1.524 -4.25,1.355 -4.309,1.192 -4.359,1.023 -4.403,0.859 -4.437,0.688 -4.465,0.52 -4.488,0.355 -4.496,0.184 -4.508,0.015 -4.504,-0.148 -4.496,-0.321 -4.485,-0.488 -4.461,-0.652 -4.429,-0.821 -4.395,-0.988 -4.351,-1.152 -4.301,-1.32 -4.242,-1.489 -4.172,-1.652 -4.098,-1.816 -4.012,-1.985 -3.918,-2.148 -3.808,-2.317 -3.695,-2.484 -3.563,-2.649 -3.418,-2.82 -3.262,-2.988 -3.089,-3.156 -2.891,-3.332 -2.676,-3.504 -2.437,-3.676 -2.176,-3.852 -1.879,-4.023 -1.555,-4.195 -1.191,-4.368 -0.797,-4.527 -0.363,-4.687 0.113,-4.825 0.625,-4.949 1.168,-5.043 1.738,-5.113 2.328,-5.141 2.911,-5.121 3.484,-5.043 4.019,-4.918 4.493,-4.722 4.894,-4.469 5.192,-4.168 5.378,-3.813 5.457,-3.433 5.411,-3.031 5.269,-2.625 5.031,-2.231 4.723,-1.855 4.367,-1.512 3.981,-1.211 3.578,-0.941 5.992,-1.25 4.582,-0.637 3.406,-0.254 h 3.461 l 2.614,0.258 1.746,0.398 1.222,0.305 0.606,-0.844 0.84,-0.832 1.328,-1.004 1.609,-0.965 2.344,-1.09 2.058,-0.746 2.52,-0.711 3.023,-0.609 3.563,-0.437 4.129,-0.184 4.707,0.164 5.266,0.609 2.835,0.504 2.957,0.657 3.075,0.816 3.175,0.996 3.262,1.18 3.332,1.375 3.383,1.582" /></g></g></g></g></g><g
         id="g158"><g
           id="g160" /><g
           id="g174"><g
             id="g172"
             clip-path="url(#clipPath164)"><g
               id="g170"><g
                 id="g168"
                 transform="scale(1,-1)"><path
                   id="path166"
                   style="fill:none;stroke:#ff0000;stroke-width:1.5;stroke-linecap:square;stroke-linejoin:round;stroke-miterlimit:10;stroke-dasharray:none;stroke-opacity:0.43999999"
                   d="m 161.828,-151.949 -2.711,0.578 -2.441,0.254 -1.762,-0.055 -1.328,-0.273 -0.629,-0.114 -0.715,1.063 -1.097,1.16 -1.372,1.176 -2.398,1.73 -2.5,1.539 -3.547,1.883 -4.918,2.211 -3.078,1.207 -3.547,1.242 -4.043,1.25 -4.558,1.219 -5.067,1.141 -5.558,1.008 -6.004,0.812 -6.387,0.559 -6.676,0.242 -6.859,-0.117 -6.922,-0.528 -6.859,-0.961 -6.684,-1.402 -6.395,-1.852 -6.015,-2.273 -5.567,-2.676 -5.074,-3.035 -4.543,-3.355 -4.004,-3.633 -3.465,-3.867 -2.945,-4.059 -2.441,-4.211 -1.969,-4.328 -1.523,-4.418 -1.11,-4.48 -0.719,-4.516 -0.367,-4.535 -0.031,-4.535 0.273,-4.524 0.559,-4.496 0.82,-4.461 1.071,-4.414 1.3,-4.359 1.52,-4.301 1.723,-4.231 1.914,-4.156 2.093,-4.078 2.27,-3.996 2.434,-3.906 2.589,-3.813 2.735,-3.715 2.883,-3.609 3.015,-3.508 3.145,-3.398 3.269,-3.285 3.387,-3.164 3.5,-3.047 3.609,-2.926 3.707,-2.793 3.805,-2.668 3.899,-2.527 3.984,-2.395 4.066,-2.254 4.137,-2.109 4.211,-1.961 4.277,-1.813 4.336,-1.66 4.387,-1.504 4.437,-1.343 4.481,-1.18 4.512,-1.016 4.547,-0.847 4.566,-0.672 4.582,-0.5 4.594,-0.317 4.593,-0.136 4.586,0.05 4.571,0.242 4.547,0.438 4.511,0.637 4.469,0.84 4.41,1.046 4.348,1.258 4.266,1.477 4.171,1.695 4.067,1.918 3.941,2.152 3.797,2.379 3.641,2.621 3.465,2.856 3.261,3.094 3.043,3.328 2.805,3.57 2.539,3.797 2.254,4.023 1.945,4.239 1.617,4.437 1.274,4.621 0.91,4.785 0.539,4.918 0.156,5.028 -0.23,5.101 -0.606,5.137 -0.976,5.137 -1.332,5.09 -1.66,5.011 -1.957,4.883 -2.223,4.719 -2.449,4.523 -2.633,4.297 -2.77,4.043 -2.867,3.77 -2.914,3.484 -2.93,3.195 -2.902,2.899 -2.844,2.613 -2.758,2.336 -2.652,2.066 -4.914,3.403 -4.336,2.547 -3.726,1.847 -3.137,1.297 -2.602,0.871 -1.117,0.313" /></g></g></g></g></g><g
         id="g176"><g
           id="g178" /><g
           id="g192"><g
             id="g190"
             clip-path="url(#clipPath182)"><g
               id="g188"><g
                 id="g186"
                 transform="scale(1,-1)"><path
                   id="path184"
                   style="fill:none;stroke:#0000ff;stroke-width:1.5;stroke-linecap:square;stroke-linejoin:round;stroke-miterlimit:10;stroke-dasharray:none;stroke-opacity:0.51000001"
                   d="m 250.598,-151.949 -3.637,2.933 -3.969,2.696 -4.242,2.429 -4.465,2.153 -4.621,1.863 -4.726,1.57 -4.766,1.289 -4.754,1.008 -4.684,0.742 -4.574,0.5 -4.418,0.274 -4.234,0.078 -4.016,-0.098 -3.785,-0.246 -3.539,-0.367 -3.285,-0.465 -5.821,-1.144 -4.855,-1.301 -3.98,-1.344 -3.223,-1.309 -3.672,-1.796 -2.598,-1.528 -2.304,-1.617 -2.188,-1.84 -1.515,-1.238 -0.493,-0.137 -0.57,0.074 -1.211,0.442 -2.269,0.808 -2.063,0.485 -1.859,0.18 -1.223,-0.086 -1,-0.325 -0.344,-0.265 -0.207,-0.324 -0.047,-0.387 0.114,-0.426 0.273,-0.449 0.945,-0.906 1.282,-0.813 2.05,-0.902 1.778,-0.528 2.035,-0.351 1.777,-0.059 0.61,-0.074 0.136,-0.238 1.036,-3.258 1.164,-2.309 1.64,-2.633 1.692,-2.335 2.379,-2.895 3.285,-3.516 4.433,-4.148 2.723,-2.293 3.098,-2.422 3.484,-2.512 3.887,-2.566 4.281,-2.578 4.664,-2.531 5.008,-2.418 5.308,-2.235 5.547,-1.988 5.703,-1.672 5.774,-1.297 5.75,-0.867 5.633,-0.41 5.422,0.082 5.121,0.57 4.75,1.055 4.304,1.519 3.817,1.954 3.277,2.343 2.719,2.692 2.133,2.988 1.543,3.23 0.945,3.418 0.355,3.555 -0.23,3.637 -0.801,3.668 -1.347,3.652 -1.876,3.59 -2.371,3.48 -2.836,3.336 -3.257,3.153" /></g></g></g></g></g><g
         id="g194"><g
           id="g196" /><g
           id="g210"><g
             id="g208"
             clip-path="url(#clipPath200)"><g
               id="g206"><g
                 id="g204"
                 transform="scale(1,-1)"><path
                   id="path202"
                   style="fill:none;stroke:#008000;stroke-width:1.5;stroke-linecap:square;stroke-linejoin:round;stroke-miterlimit:10;stroke-dasharray:none;stroke-opacity:0.51000001"
                   d="m 202.934,-151.949 4.23,1.691 4.316,1.969 4.364,2.246 4.363,2.539 4.313,2.82 4.214,3.102 4.059,3.367 3.859,3.621 3.614,3.852 3.324,4.058 3.004,4.239 2.656,4.383 2.281,4.503 1.899,4.594 1.5,4.649 1.105,4.683 0.711,4.684 0.328,4.664 -0.051,4.621 -0.41,4.559 -0.754,4.48 -1.078,4.387 -1.39,4.281 -1.68,4.168 -1.953,4.043 -2.203,3.91 -2.442,3.774 -2.66,3.628 -2.863,3.485 -3.051,3.332 -3.227,3.183 -3.386,3.028 -3.531,2.871 -3.672,2.715 -3.797,2.558 -3.91,2.399 -4.016,2.238 -4.109,2.078 -4.2,1.918 -4.277,1.758 -4.348,1.594 -4.41,1.433 -4.468,1.274 -4.512,1.113 -4.559,0.949 -4.594,0.789 -4.621,0.629 -4.64,0.465 -4.66,0.305 -4.668,0.144 -4.676,-0.015 -4.672,-0.176 -4.664,-0.336 -4.649,-0.492 -4.632,-0.653 -4.606,-0.812 -4.574,-0.969 -4.535,-1.121 -4.492,-1.281 -4.446,-1.434 -4.386,-1.59 -4.325,-1.746 -4.254,-1.894 -4.179,-2.051 -4.094,-2.203 -4,-2.356 -3.898,-2.511 -3.786,-2.664 -3.66,-2.821 -3.523,-2.98 -3.367,-3.137 -3.196,-3.305 -3.004,-3.472 -2.785,-3.645 -2.531,-3.828 -2.242,-4.02 -1.91,-4.214 -1.52,-4.426 -1.074,-4.637 -0.547,-4.863 0.063,-5.09 0.753,-5.309 1.539,-5.515 2.415,-5.699 3.351,-5.832 4.324,-5.899 5.286,-5.871 6.175,-5.738 6.918,-5.485 7.465,-5.105 7.75,-4.629 7.766,-4.066 7.519,-3.469 7.055,-2.863 6.43,-2.293 5.707,-1.782 4.953,-1.339 4.215,-0.981 6.453,-1.156 4.32,-0.485 3.805,-0.14 2.328,0.152 1.367,0.305 0.305,0.023 0.328,-0.429 0.699,-0.625 1.293,-0.868 1.711,-0.871 1.617,-0.648 2.09,-0.664 2.641,-0.621 3.269,-0.512 3.985,-0.324 4.781,-0.02 2.707,0.137 2.926,0.266 3.148,0.41 3.363,0.57 3.575,0.758 3.773,0.965 3.949,1.187 4.11,1.434" /></g></g></g></g></g><g
         id="g212"><g
           id="g214" /><g
           id="g228"><g
             id="g226"
             clip-path="url(#clipPath218)"><g
               id="g224"><g
                 id="g222"
                 transform="scale(1,-1)"><path
                   id="path220"
                   style="fill:none;stroke:#ff0000;stroke-width:1.5;stroke-linecap:square;stroke-linejoin:round;stroke-miterlimit:10;stroke-dasharray:none;stroke-opacity:0.51000001"
                   d="m 157.445,-151.949 -2.164,0.293 -1.504,-0.02 -0.808,-0.222 -0.028,-0.004 -0.039,0.082 -0.39,0.527 -1.008,0.953 -1.582,1.199 -1.938,1.258 -3.136,1.77 -4.965,2.39 -3.403,1.438 -4.156,1.59 -4.988,1.703 -5.887,1.762 -6.797,1.738 -7.66,1.613 -8.402,1.367 -8.965,0.996 -9.27,0.516 -9.3,-0.062 -9.051,-0.696 -8.555,-1.34 -7.863,-1.961 -7.051,-2.535 -6.168,-3.035 -5.281,-3.453 -4.426,-3.801 -3.633,-4.066 -2.906,-4.274 -2.254,-4.422 -1.679,-4.523 -1.176,-4.594 -0.727,-4.636 -0.336,-4.653 0.016,-4.652 0.328,-4.637 0.605,-4.609 0.864,-4.574 1.093,-4.532 1.313,-4.48 1.508,-4.426 1.699,-4.367 1.875,-4.297 2.047,-4.227 2.203,-4.152 2.355,-4.07 2.5,-3.992 2.645,-3.903 2.781,-3.808 2.907,-3.719 3.039,-3.617 3.156,-3.516 3.273,-3.41 3.383,-3.301 3.496,-3.191 3.598,-3.074 3.699,-2.954 3.793,-2.836 3.887,-2.707 3.968,-2.582 4.055,-2.453 4.133,-2.316 4.207,-2.184 4.273,-2.043 4.34,-1.898 4.399,-1.758 4.453,-1.609 4.504,-1.461 4.551,-1.309 4.585,-1.156 4.625,-0.996 4.649,-0.836 4.676,-0.676 4.691,-0.508 4.703,-0.34 4.707,-0.168 4.707,0.008 4.696,0.188 4.675,0.367 4.653,0.559 4.613,0.753 4.574,0.95 4.512,1.156 4.445,1.367 4.364,1.582 4.265,1.813 4.149,2.05 4.015,2.293 3.86,2.547 3.679,2.809 3.473,3.086 3.234,3.371 2.969,3.66 2.664,3.957 2.324,4.258 1.946,4.559 1.531,4.851 1.078,5.137 0.59,5.394 0.082,5.625 -0.453,5.813 -0.988,5.961 -1.52,6.039 -2.031,6.054 -2.504,6 -2.926,5.872 -3.277,5.668 -3.563,5.402 -3.758,5.078 -3.871,4.703 -3.902,4.305 -3.863,3.887 -3.758,3.461 -3.598,3.046 -3.398,2.653 -3.168,2.281 -2.926,1.941 -5.094,3.004 -4.125,2.055 -3.254,1.352 -2.515,0.851 -2.692,0.68" /></g></g></g></g></g><g
         id="g230"><g
           id="g232" /><g
           id="g246"><g
             id="g244"
             clip-path="url(#clipPath236)"><g
               id="g242"><g
                 id="g240"
                 transform="scale(1,-1)"><path
                   id="path238"
                   style="fill:none;stroke:#0000ff;stroke-width:1.5;stroke-linecap:square;stroke-linejoin:round;stroke-miterlimit:10;stroke-dasharray:none;stroke-opacity:0.57999998"
                   d="m 263.508,-151.949 -5.406,3.281 -5.973,2.918 -6.449,2.512 -6.813,2.074 -7.047,1.629 -7.144,1.183 -7.098,0.758 -6.922,0.371 -6.617,0.024 -6.227,-0.262 -5.757,-0.496 -5.254,-0.668 -4.723,-0.793 -4.195,-0.867 -3.688,-0.903 -5.988,-1.785 -4.414,-1.644 -3.184,-1.414 -3.132,-1.68 -2.278,-1.519 -1.453,-1.25 -1.062,-0.946 -1.383,0.735 -1.199,0.402 -1.215,0.23 -0.699,-0.023 -0.204,-0.098 -0.054,-0.156 0.113,-0.203 0.645,-0.469 1.382,-0.582 1.637,-0.398 1.09,-0.035 0.09,-0.008 0.008,-0.086 0.132,-0.59 0.426,-1.023 0.707,-1.305 1.551,-2.336 1.922,-2.477 3.121,-3.535 2.191,-2.258 2.723,-2.625 3.352,-3.007 4.058,-3.383 4.836,-3.727 5.648,-4 6.458,-4.168 7.195,-4.187 7.816,-4.035 8.25,-3.688 8.469,-3.164 8.441,-2.492 8.184,-1.707 7.727,-0.871 7.105,-0.028 6.379,0.782 5.59,1.515 4.773,2.164 3.957,2.723 3.16,3.184 2.387,3.562 1.637,3.852 0.902,4.066 0.184,4.223 -0.528,4.304 -1.242,4.336 -1.957,4.309 -2.676,4.215 -3.394,4.07 -4.094,3.867 -4.777,3.602" /></g></g></g></g></g><g
         id="g248"><g
           id="g250" /><g
           id="g264"><g
             id="g262"
             clip-path="url(#clipPath254)"><g
               id="g260"><g
                 id="g258"
                 transform="scale(1,-1)"><path
                   id="path256"
                   style="fill:none;stroke:#008000;stroke-width:1.5;stroke-linecap:square;stroke-linejoin:round;stroke-miterlimit:10;stroke-dasharray:none;stroke-opacity:0.57999998"
                   d="m 193.438,-151.949 5.562,1.437 5.93,1.813 6.222,2.219 6.403,2.64 6.468,3.078 6.395,3.496 6.187,3.899 5.848,4.254 5.395,4.562 4.847,4.805 4.231,4.996 3.578,5.117 2.906,5.184 2.238,5.195 1.59,5.172 0.981,5.105 0.414,5.012 -0.113,4.895 -0.594,4.765 -1.02,4.629 -1.41,4.477 -1.758,4.324 -2.07,4.172 -2.348,4.015 -2.597,3.86 -2.825,3.703 -3.023,3.555 -3.207,3.398 -3.371,3.25 -3.524,3.098 -3.656,2.949 -3.785,2.797 -3.898,2.652 -4,2.504 -4.102,2.352 -4.184,2.207 -4.265,2.054 -4.34,1.911 -4.406,1.757 -4.469,1.606 -4.52,1.461 -4.57,1.308 -4.609,1.157 -4.653,1.004 -4.679,0.851 -4.707,0.703 -4.731,0.551 -4.746,0.395 -4.758,0.246 -4.761,0.089 -4.766,-0.058 -4.762,-0.211 -4.75,-0.363 -4.738,-0.516 -4.719,-0.664 -4.695,-0.813 -4.664,-0.964 -4.633,-1.114 -4.594,-1.257 -4.551,-1.403 -4.5,-1.547 -4.449,-1.695 -4.394,-1.832 -4.328,-1.973 -4.258,-2.113 -4.188,-2.25 -4.109,-2.387 -4.024,-2.523 -3.933,-2.652 -3.836,-2.79 -3.731,-2.921 -3.617,-3.055 -3.492,-3.188 -3.359,-3.324 -3.199,-3.465 -3.024,-3.613 -2.816,-3.773 -2.563,-3.946 -2.258,-4.14 -1.867,-4.364 -1.367,-4.617 -0.719,-4.918 0.141,-5.273 1.246,-5.68 2.66,-6.121 4.395,-6.578 6.402,-6.981 8.527,-7.234 10.496,-7.23 11.957,-6.899 12.598,-6.199 12.301,-5.234 11.18,-4.141 9.535,-3.078 7.711,-2.16 5.972,-1.442 7.762,-1.48 4.035,-0.5 3.008,-0.125 1.121,-0.043 0.695,-0.481 1.34,-0.636 1.856,-0.602 1.847,-0.43 2.543,-0.406 3.465,-0.312 4.676,-0.106 2.887,0.078 3.297,0.207 3.742,0.367 4.203,0.571 4.676,0.812 5.133,1.106" /></g></g></g></g></g><g
         id="g266"><g
           id="g268" /><g
           id="g282"><g
             id="g280"
             clip-path="url(#clipPath272)"><g
               id="g278"><g
                 id="g276"
                 transform="scale(1,-1)"><path
                   id="path274"
                   style="fill:none;stroke:#ff0000;stroke-width:1.5;stroke-linecap:square;stroke-linejoin:round;stroke-miterlimit:10;stroke-dasharray:none;stroke-opacity:0.57999998"
                   d="m 154.031,-151.949 -1.058,0.015 -0.106,0.071 -0.48,0.422 -1.121,0.777 -1.86,1.094 -3.871,1.968 -3.226,1.454 -4.485,1.847 -6.086,2.258 -7.984,2.637 -10.043,2.883 -11.984,2.89 -13.454,2.555 -14.113,1.867 -13.828,0.883 -12.676,-0.242 -10.953,-1.352 -9.008,-2.32 -7.105,-3.098 -5.43,-3.672 -4.031,-4.074 -2.91,-4.344 -2.031,-4.519 -1.34,-4.625 -0.801,-4.684 -0.371,-4.711 -0.016,-4.719 0.274,-4.71 0.531,-4.692 0.75,-4.664 0.953,-4.637 1.141,-4.593 1.308,-4.555 1.477,-4.504 1.633,-4.453 1.785,-4.399 1.929,-4.335 2.075,-4.274 2.214,-4.203 2.352,-4.129 2.48,-4.055 2.614,-3.972 2.738,-3.887 2.859,-3.801 2.981,-3.711 3.101,-3.613 3.211,-3.512 3.321,-3.414 3.429,-3.304 3.536,-3.196 3.632,-3.086 3.727,-2.968 3.82,-2.848 3.91,-2.731 3.997,-2.605 4.074,-2.477 4.152,-2.351 4.223,-2.215 4.293,-2.086 4.355,-1.949 4.418,-1.809 4.473,-1.672 4.519,-1.527 4.571,-1.383 4.609,-1.238 4.648,-1.094 4.68,-0.941 4.707,-0.793 4.731,-0.645 4.746,-0.488 4.758,-0.336 4.769,-0.176 4.77,-0.019 4.761,0.136 4.758,0.305 4.738,0.465 4.719,0.633 4.688,0.804 4.648,0.981 4.602,1.16 4.543,1.348 4.476,1.547 4.391,1.75 4.293,1.968 4.168,2.203 4.027,2.458 3.848,2.726 3.636,3.024 3.379,3.355 3.067,3.715 2.691,4.109 2.242,4.539 1.703,5.008 1.079,5.496 0.351,6.008 -0.465,6.504 -1.351,6.969 -2.289,7.367 -3.223,7.648 -4.102,7.789 -4.867,7.746 -5.457,7.516 -5.843,7.098 -5.993,6.527 -5.922,5.848 -5.66,5.097 -5.258,4.348 -4.753,3.621 -4.207,2.957 -3.657,2.379 -5.769,3.348 -4.039,1.992 -2.746,1.141 -2.496,0.816 -1.614,0.34" /></g></g></g></g></g><g
         id="g284"><g
           id="g286" /><g
           id="g300"><g
             id="g298"
             clip-path="url(#clipPath290)"><g
               id="g296"><g
                 id="g294"
                 transform="scale(1,-1)"><path
                   id="path292"
                   style="fill:none;stroke:#0000ff;stroke-width:1.5;stroke-linecap:square;stroke-linejoin:round;stroke-miterlimit:10;stroke-dasharray:none;stroke-opacity:0.65"
                   d="m 281.031,-151.949 -6.703,3.789 -8.14,3.289 -9.512,2.664 -10.66,1.941 -11.434,1.164 -11.703,0.411 -11.418,-0.262 -10.637,-0.781 -9.496,-1.133 -8.156,-1.321 -6.774,-1.367 -5.468,-1.316 -4.325,-1.199 -5.925,-1.957 -3.414,-1.375 -2.528,-1.243 -1.554,-1.023 -0.375,-0.195 -0.625,0.207 -0.137,-0.008 0.156,-0.102 0.828,-0.433 0.699,-1.09 1.028,-1.328 2.304,-2.625 2.036,-2.113 2.957,-2.879 4.211,-3.825 5.82,-4.921 7.73,-6.055 9.774,-7.024 11.625,-7.574 12.902,-7.472 13.321,-6.629 12.816,-5.176 11.578,-3.399 9.941,-1.597 8.231,0.008 6.652,1.312 5.309,2.309 4.207,3.039 3.328,3.566 2.617,3.938 2.02,4.199 1.504,4.39 1.015,4.532 0.532,4.625 0.015,4.695 -0.566,4.731 -1.235,4.73 -2.027,4.691 -2.961,4.598 -4.062,4.426 -5.321,4.168" /></g></g></g></g></g><g
         id="g302"><g
           id="g304" /><g
           id="g318"><g
             id="g316"
             clip-path="url(#clipPath308)"><g
               id="g314"><g
                 id="g312"
                 transform="scale(1,-1)"><path
                   id="path310"
                   style="fill:none;stroke:#008000;stroke-width:1.5;stroke-linecap:square;stroke-linejoin:round;stroke-miterlimit:10;stroke-dasharray:none;stroke-opacity:0.65"
                   d="m 176.953,-151.949 6.649,0.957 7.925,1.453 9.145,2.074 10.144,2.781 10.766,3.536 10.883,4.273 10.449,4.91 9.524,5.399 8.238,5.714 6.746,5.864 5.226,5.859 3.782,5.762 2.492,5.586 1.39,5.383 0.465,5.168 -0.289,4.953 -0.902,4.746 -1.402,4.558 -1.805,4.375 -2.137,4.215 -2.418,4.063 -2.648,3.914 -2.856,3.777 -3.027,3.645 -3.188,3.515 -3.328,3.391 -3.457,3.262 -3.578,3.136 -3.683,3.012 -3.789,2.887 -3.887,2.758 -3.977,2.628 -4.058,2.5 -4.145,2.368 -4.215,2.234 -4.285,2.098 -4.351,1.965 -4.414,1.824 -4.469,1.683 -4.52,1.543 -4.566,1.399 -4.61,1.258 -4.648,1.109 -4.68,0.969 -4.711,0.816 -4.73,0.672 -4.75,0.523 -4.766,0.372 -4.777,0.226 -4.777,0.074 -4.782,-0.074 -4.777,-0.223 -4.766,-0.371 -4.75,-0.523 -4.734,-0.668 -4.707,-0.817 -4.68,-0.964 -4.648,-1.11 -4.613,-1.254 -4.567,-1.394 -4.523,-1.539 -4.473,-1.68 -4.414,-1.82 -4.359,-1.953 -4.289,-2.09 -4.227,-2.227 -4.148,-2.351 -4.079,-2.485 -3.992,-2.609 -3.91,-2.734 -3.816,-2.856 -3.727,-2.973 -3.629,-3.089 -3.531,-3.204 -3.422,-3.316 -3.309,-3.422 -3.191,-3.531 -3.066,-3.641 -2.922,-3.75 -2.758,-3.871 -2.555,-4.004 -2.277,-4.164 -1.867,-4.383 -1.223,-4.695 -0.137,-5.152 1.676,-5.852 4.645,-6.851 9.093,-8.133 14.723,-9.383 19.895,-9.937 22.043,-9.125 19.953,-7.063 15.109,-4.637 9.992,-2.668 6.043,-1.39 5.387,-0.996 2.813,-0.454 1.039,-0.261 2.031,-0.297 2.687,-0.192 4.629,-0.035 3.391,0.129 4.32,0.313 5.418,0.582" /></g></g></g></g></g><g
         id="g320"><g
           id="g322" /><g
           id="g336"><g
             id="g334"
             clip-path="url(#clipPath326)"><g
               id="g332"><g
                 id="g330"
                 transform="scale(1,-1)"><path
                   id="path328"
                   style="fill:none;stroke:#ff0000;stroke-width:1.5;stroke-linecap:square;stroke-linejoin:round;stroke-miterlimit:10;stroke-dasharray:none;stroke-opacity:0.65"
                   d="m 152.992,-151.949 -0.16,0.078 -1.133,0.644 -3.094,1.469 -3.675,1.551 -6.492,2.488 -10.801,3.719 -16.317,4.934 -21.402,5.461 -23.492,4.625 -21.328,2.539 -16.364,0.074 -11.101,-1.942 -6.981,-3.25 -4.226,-4.003 -2.516,-4.391 -1.476,-4.59 -0.832,-4.684 -0.411,-4.722 -0.113,-4.742 0.121,-4.743 0.317,-4.738 0.492,-4.723 0.652,-4.703 0.809,-4.679 0.961,-4.653 1.113,-4.621 1.258,-4.582 1.402,-4.539 1.547,-4.492 1.691,-4.445 1.829,-4.387 1.964,-4.332 2.106,-4.266 2.234,-4.195 2.371,-4.129 2.496,-4.047 2.625,-3.973 2.75,-3.886 2.868,-3.797 2.992,-3.707 3.101,-3.613 3.219,-3.512 3.328,-3.41 3.434,-3.305 3.535,-3.199 3.637,-3.082 3.73,-2.973 3.82,-2.851 3.915,-2.731 3.996,-2.609 4.074,-2.481 4.152,-2.351 4.227,-2.223 4.293,-2.09 4.355,-1.957 4.418,-1.816 4.473,-1.68 4.523,-1.539 4.571,-1.395 4.609,-1.253 4.648,-1.11 4.684,-0.961 4.707,-0.816 4.734,-0.668 4.75,-0.524 4.766,-0.371 4.777,-0.222 4.782,-0.071 4.777,0.075 4.777,0.226 4.762,0.379 4.754,0.527 4.73,0.676 4.707,0.824 4.676,0.977 4.641,1.129 4.601,1.277 4.555,1.434 4.5,1.586 4.441,1.75 4.364,1.914 4.281,2.094 4.172,2.281 4.047,2.496 3.883,2.742 3.668,3.031 3.375,3.387 2.988,3.824 2.441,4.383 1.696,5.086 0.675,5.961 -0.675,7.023 -2.391,8.231 -4.41,9.469 -6.563,10.547 -8.531,11.195 -9.93,11.187 -10.476,10.446 -10.098,9.082 -9,7.39 -7.504,5.672 -5.933,4.149 -4.512,2.925 -5.734,3.34 -3.774,1.836 -1.863,0.633 -0.059,0.008" /></g></g></g></g></g><g
         id="g338"><g
           id="g340"><g
             clip-path="url(#clipPath346)"
             id="g342"><g
               id="g348"><g
                 transform="scale(1,-1)"
                 id="g350"><path
                   id="path352"
                   style="fill:none;stroke:#000000;stroke-width:1.5;stroke-linecap:square;stroke-linejoin:round;stroke-miterlimit:10;stroke-dasharray:none;stroke-opacity:1"
                   d="m 305.113,-151.949 -0.074,4.75 -0.227,4.742 -0.374,4.734 -0.524,4.723 -0.676,4.703 -0.82,4.68 -0.969,4.652 -1.117,4.617 -1.262,4.582 -1.406,4.539 -1.547,4.493 -1.691,4.445 -1.828,4.387 -1.969,4.332 -2.102,4.265 -2.238,4.196 -2.367,4.125 -2.5,4.05 -2.625,3.969 -2.746,3.887 -2.871,3.801 -2.989,3.707 -3.105,3.609 -3.219,3.516 -3.328,3.41 -3.43,3.305 -3.539,3.199 -3.632,3.082 -3.731,2.969 -3.824,2.855 -3.914,2.73 -3.992,2.606 -4.079,2.484 -4.152,2.352 -4.226,2.223 -4.293,2.089 -4.356,1.957 -4.418,1.817 -4.473,1.679 -4.523,1.54 -4.566,1.394 -4.614,1.254 -4.648,1.109 -4.68,0.961 -4.711,0.817 -4.734,0.672 -4.75,0.519 -4.766,0.375 -4.777,0.223 -4.777,0.074 -4.782,-0.074 -4.777,-0.223 -4.766,-0.375 -4.75,-0.519 -4.734,-0.672 -4.711,-0.817 -4.68,-0.961 -4.648,-1.109 -4.613,-1.254 -4.567,-1.394 -4.523,-1.54 -4.473,-1.679 -4.418,-1.817 -4.355,-1.957 -4.293,-2.089 -4.227,-2.223 -4.152,-2.352 -4.074,-2.484 -3.996,-2.606 -3.915,-2.73 -3.82,-2.855 -3.734,-2.969 -3.633,-3.082 -3.535,-3.199 -3.434,-3.305 -3.328,-3.41 -3.219,-3.516 -3.105,-3.609 -2.988,-3.707 -2.872,-3.801 -2.746,-3.887 -2.625,-3.969 -2.5,-4.05 -2.367,-4.125 -2.238,-4.196 -2.102,-4.265 -1.968,-4.332 -1.828,-4.387 -1.692,-4.445 -1.547,-4.493 -1.406,-4.539 -1.262,-4.582 -1.117,-4.617 -0.969,-4.652 -0.82,-4.68 -0.676,-4.703 -0.523,-4.723 -0.375,-4.734 -0.227,-4.742 -0.074,-4.75 0.074,-4.75 0.227,-4.746 0.375,-4.735 0.523,-4.718 0.676,-4.704 0.82,-4.679 0.969,-4.653 1.117,-4.617 1.262,-4.582 1.406,-4.539 1.547,-4.496 1.692,-4.441 1.828,-4.391 1.968,-4.328 2.102,-4.266 2.238,-4.199 2.367,-4.125 2.5,-4.051 2.625,-3.969 2.746,-3.886 2.872,-3.797 2.988,-3.707 3.105,-3.613 3.219,-3.512 3.328,-3.41 3.434,-3.309 3.535,-3.195 3.633,-3.086 3.734,-2.969 3.82,-2.851 3.915,-2.731 3.996,-2.609 4.074,-2.481 4.152,-2.355 4.227,-2.223 4.293,-2.09 4.355,-1.953 4.418,-1.816 4.473,-1.68 4.523,-1.539 4.567,-1.395 4.613,-1.253 4.648,-1.11 4.68,-0.965 4.711,-0.816 4.734,-0.668 4.75,-0.523 4.766,-0.372 4.777,-0.222 4.782,-0.074 4.777,0.074 4.777,0.222 4.766,0.372 4.75,0.523 4.734,0.668 4.711,0.816 4.68,0.965 4.648,1.11 4.614,1.253 4.566,1.395 4.523,1.539 4.473,1.68 4.418,1.816 4.356,1.953 4.293,2.09 4.226,2.223 4.152,2.355 4.079,2.481 3.992,2.609 3.914,2.731 3.824,2.851 3.731,2.969 3.632,3.086 3.539,3.195 3.43,3.309 3.328,3.41 3.219,3.512 3.105,3.613 2.989,3.707 2.871,3.797 2.746,3.886 2.625,3.969 2.5,4.051 2.367,4.125 2.238,4.199 2.102,4.266 1.969,4.328 1.828,4.391 1.691,4.441 1.547,4.496 1.406,4.539 1.262,4.582 1.117,4.617 0.969,4.653 0.82,4.679 0.676,4.704 0.524,4.718 0.374,4.735 0.227,4.746 0.074,4.75" /></g></g></g></g></g></g></g></svg>