<?xml version="1.0" encoding="UTF-8" standalone="no"?>
<svg
   xmlns:dc="http://purl.org/dc/elements/1.1/"
   xmlns:cc="http://creativecommons.org/ns#"
   xmlns:rdf="http://www.w3.org/1999/02/22-rdf-syntax-ns#"
   xmlns:svg="http://www.w3.org/2000/svg"
   xmlns="http://www.w3.org/2000/svg"
   viewBox="0 0 576 576"
   height="576"
   width="576"
   xml:space="preserve"
   id="svg2"
   version="1.1"><metadata
     id="metadata8"><rdf:RDF><cc:Work
         rdf:about=""><dc:format>image/svg+xml</dc:format><dc:type
           rdf:resource="http://purl.org/dc/dcmitype/StillImage" /><dc:title></dc:title></cc:Work></rdf:RDF></metadata><defs
     id="defs6"><clipPath
       id="clipPath20"
       clipPathUnits="userSpaceOnUse"><path
         id="path18"
         d="M 54,47.52 H 388.8 V 380.16 H 54 Z" /></clipPath><clipPath
       id="clipPath30"
       clipPathUnits="userSpaceOnUse"><path
         id="path28"
         d="M 54,47.52 H 388.8 V 380.16 H 54 Z" /></clipPath><clipPath
       id="clipPath40"
       clipPathUnits="userSpaceOnUse"><path
         id="path38"
         d="M 54,47.52 H 388.8 V 380.16 H 54 Z" /></clipPath><clipPath
       id="clipPath50"
       clipPathUnits="userSpaceOnUse"><path
         id="path48"
         d="M 54,47.52 H 388.8 V 380.16 H 54 Z" /></clipPath><clipPath
       id="clipPath60"
       clipPathUnits="userSpaceOnUse"><path
         id="path58"
         d="M 54,47.52 H 388.8 V 380.16 H 54 Z" /></clipPath><clipPath
       id="clipPath70"
       clipPathUnits="userSpaceOnUse"><path
         id="path68"
         d="M 54,47.52 H 388.8 V 380.16 H 54 Z" /></clipPath><clipPath
       id="clipPath80"
       clipPathUnits="userSpaceOnUse"><path
         id="path78"
         d="M 54,47.52 H 388.8 V 380.16 H 54 Z" /></clipPath><clipPath
       id="clipPath90"
       clipPathUnits="userSpaceOnUse"><path
         id="path88"
         d="M 54,47.52 H 388.8 V 380.16 H 54 Z" /></clipPath><clipPath
       id="clipPath100"
       clipPathUnits="userSpaceOnUse"><path
         id="path98"
         d="M 54,47.52 H 388.8 V 380.16 H 54 Z" /></clipPath><clipPath
       id="clipPath110"
       clipPathUnits="userSpaceOnUse"><path
         id="path108"
         d="M 54,47.52 H 388.8 V 380.16 H 54 Z" /></clipPath><clipPath
       id="clipPath120"
       clipPathUnits="userSpaceOnUse"><path
         id="path118"
         d="M 54,47.52 H 388.8 V 380.16 H 54 Z" /></clipPath><clipPath
       id="clipPath130"
       clipPathUnits="userSpaceOnUse"><path
         id="path128"
         d="M 54,47.52 H 388.8 V 380.16 H 54 Z" /></clipPath><clipPath
       id="clipPath140"
       clipPathUnits="userSpaceOnUse"><path
         id="path138"
         d="M 54,47.52 H 388.8 V 380.16 H 54 Z" /></clipPath><clipPath
       id="clipPath150"
       clipPathUnits="userSpaceOnUse"><path
         id="path148"
         d="M 54,47.52 H 388.8 V 380.16 H 54 Z" /></clipPath><clipPath
       id="clipPath160"
       clipPathUnits="userSpaceOnUse"><path
         id="path158"
         d="M 54,47.52 H 388.8 V 380.16 H 54 Z" /></clipPath><clipPath
       id="clipPath170"
       clipPathUnits="userSpaceOnUse"><path
         id="path168"
         d="M 54,47.52 H 388.8 V 380.16 H 54 Z" /></clipPath><clipPath
       id="clipPath180"
       clipPathUnits="userSpaceOnUse"><path
         id="path178"
         d="M 54,47.52 H 388.8 V 380.16 H 54 Z" /></clipPath><clipPath
       id="clipPath190"
       clipPathUnits="userSpaceOnUse"><path
         id="path188"
         d="M 54,47.52 H 388.8 V 380.16 H 54 Z" /></clipPath><clipPath
       id="clipPath200"
       clipPathUnits="userSpaceOnUse"><path
         id="path198"
         d="M 54,47.52 H 388.8 V 380.16 H 54 Z" /></clipPath><clipPath
       id="clipPath210"
       clipPathUnits="userSpaceOnUse"><path
         id="path208"
         d="M 54,47.52 H 388.8 V 380.16 H 54 Z" /></clipPath><clipPath
       id="clipPath220"
       clipPathUnits="userSpaceOnUse"><path
         id="path218"
         d="M 54,47.52 H 388.8 V 380.16 H 54 Z" /></clipPath><clipPath
       id="clipPath230"
       clipPathUnits="userSpaceOnUse"><path
         id="path228"
         d="M 54,47.52 H 388.8 V 380.16 H 54 Z" /></clipPath></defs><g
     transform="matrix(1.3333333,0,0,-1.3333333,0,576)"
     id="g10"><path
       id="path12"
       style="fill:#ffffff;fill-opacity:1;fill-rule:nonzero;stroke:none"
       d="M 0,0 H 432 V 432 H 0 Z" /><g
       id="g14"><g
         clip-path="url(#clipPath20)"
         id="g16"><path
           id="path22"
           style="fill:none;stroke:#0000ff;stroke-width:1.5;stroke-linecap:square;stroke-linejoin:round;stroke-miterlimit:10;stroke-dasharray:none;stroke-opacity:0.3"
           d="m 287.29248,213.84 -0.83191,4.06686 -1.24542,3.94286 -1.62595,3.77697 -1.96847,3.57561 -2.2695,3.34571 -2.52712,3.09437 -2.74083,2.82855 -2.91142,2.55485 -3.04084,2.2793 -3.1319,2.00717 -3.18812,1.74296 -3.21346,1.49024 -3.21219,1.25178 -3.18861,1.02946 -3.14697,0.82443 -3.09132,0.63714 -4.51121,0.64283 -4.34315,0.31701 -4.16858,0.0412 -3.99826,-0.19259 -3.83977,-0.39379 -3.69748,-0.57218 -3.57286,-0.73768 -3.46454,-0.89977 -3.36846,-1.0672 -3.27807,-1.24744 -3.18445,-1.44621 -3.07671,-1.6668 -2.94266,-1.90932 -2.7699,-2.17001 -1.72637,-1.59694 -1.61071,-1.71762 -1.47721,-1.83545 -1.32575,-1.94709 -1.1572,-2.04902 -0.97336,-2.1378 -0.77712,-2.21024 -0.57214,-2.26377 -0.36279,-2.29658 -0.15377,-2.3078 0.0502,-2.29766 0.24457,-2.26735 0.42563,-2.21902 0.59036,-2.15551 0.73674,-2.08018 1.33722,-2.96193 1.55856,-2.76175 1.72141,-2.56473 1.83606,-2.38375 2.56704,-2.94098 3.34158,-3.39796 3.49029,-3.22392 3.71895,-3.1708 4.09261,-3.19026 3.66966,-2.5707 3.05303,-1.91547 3.36021,-1.8686 3.70658,-1.772 4.08233,-1.60894 2.93805,-0.94171 3.11085,-0.80444 3.27778,-0.63651 3.43309,-0.43629 3.57045,-0.20306 3.68312,0.0628 3.76421,0.35949 3.80702,0.68388 3.80538,1.03126 3.75403,1.39551 3.64908,1.76923 3.48814,2.14396 3.27081,2.51059 1.53665,1.38766 1.46198,1.47202 1.38103,1.55274 1.29415,1.6293 1.20175,1.70118 1.10428,1.76791 1.00222,1.82907 0.89615,1.88428 0.78661,1.9332 0.67422,1.97557 0.55959,2.01117 0.44337,2.03983 0.32618,2.06149 0.20867,2.07608 0.0915,2.08365 -0.0248,2.08427 -0.1396,2.07809 -0.25233,2.06527 v 0" /></g></g><g
       id="g24"><g
         clip-path="url(#clipPath30)"
         id="g26"><path
           id="path32"
           style="fill:none;stroke:#008000;stroke-width:1.5;stroke-linecap:square;stroke-linejoin:round;stroke-miterlimit:10;stroke-dasharray:none;stroke-opacity:0.3"
           d="m 277.13703,213.84 2.68345,3.65179 2.43432,3.98636 2.13804,4.30085 1.79678,4.58882 0.7572,2.39243 0.65652,2.45174 0.55126,2.50609 0.44174,2.55519 0.32831,2.59873 0.21131,2.63648 0.0911,2.66818 -0.0319,2.69363 -0.15723,2.71264 -0.28458,2.72508 -0.41348,2.73083 -0.54351,2.72976 -0.67424,2.72186 -0.80521,2.70706 -0.93604,2.68536 -1.06625,2.65678 -1.19546,2.62138 -1.32324,2.57922 -1.4492,2.53039 -1.57292,2.47501 -1.69406,2.41321 -1.81222,2.34518 -1.92706,2.27104 -2.03824,2.19102 -2.14545,2.10532 -2.24835,2.01414 -2.34668,1.91774 -2.44014,1.81634 -2.52848,1.71018 -2.61146,1.59957 -2.68882,1.48472 -2.76038,1.36595 -2.82592,1.24352 -2.88524,1.11772 -2.93819,0.98885 -2.98459,0.85721 -3.02431,0.72309 -3.05719,0.5868 -3.08313,0.44866 -3.10201,0.30897 -3.11374,0.16808 -3.11821,0.0263 -3.11537,-0.11608 -3.10515,-0.25866 -3.08751,-0.40115 -3.06239,-0.54316 -3.0298,-0.68438 -2.98971,-0.82441 -2.94214,-0.96291 -2.88714,-1.09949 -2.82471,-1.23377 -2.75497,-1.36538 -2.67797,-1.49389 -2.59386,-1.61892 -2.50276,-1.74004 -2.40485,-1.85685 -2.30034,-1.96893 -2.18947,-2.07583 -2.07251,-2.17717 -1.94979,-2.27248 -1.82166,-2.36137 -1.68851,-2.44344 -1.55081,-2.51828 -1.40904,-2.5855 -1.26374,-2.64477 -1.11551,-2.69574 -0.96496,-2.73814 -0.81277,-2.7717 -0.65965,-2.79622 -0.50636,-2.81153 -0.35366,-2.81755 -0.20233,-2.81424 -0.0532,-2.80165 0.0929,-2.77986 0.23521,-2.74907 0.37291,-2.70955 0.50526,-2.66162 0.63154,-2.60571 0.75107,-2.5423 0.86325,-2.47193 0.96755,-2.39524 1.06353,-2.31288 1.15082,-2.22558 2.52747,-4.1732 2.76745,-3.78363 2.93462,-3.38209 3.03227,-2.98045 3.06615,-2.58929 3.0439,-2.21755 2.97443,-1.8722 2.86715,-1.55812 2.73145,-1.27818 3.80198,-1.46944 3.42026,-1.03504 3.03575,-0.70728 3.48562,-0.59109 4.80628,-0.53056 4.56638,-0.53632 2.58438,-0.56728 2.61307,-0.82999 7.38872,-2.52433 3.16716,-0.76971 2.75281,-0.46579 3.10602,-0.29905 3.47241,-0.056 2.51756,0.13957 2.67335,0.31248 2.81876,0.51308 2.94908,0.74137 3.05935,0.99661 3.14458,1.27723 3.19992,1.58087 3.22069,1.90425 3.20276,2.24336 3.14249,2.59336 3.03702,2.94882 2.88435,3.30376 v 0" /></g></g><g
       id="g34"><g
         clip-path="url(#clipPath40)"
         id="g36"><path
           id="path42"
           style="fill:none;stroke:#ff0000;stroke-width:1.5;stroke-linecap:square;stroke-linejoin:round;stroke-miterlimit:10;stroke-dasharray:none;stroke-opacity:0.3"
           d="m 251.95231,213.84 -2.15184,1.77528 -3.10346,2.20552 -2.90662,1.73099 -2.67716,1.33962 -3.19159,1.31248 -3.39951,1.10839 -8.76047,2.56454 -2.26992,1.0847 -3.53242,2.021 -3.56691,1.98252 -3.10135,1.49271 -2.83011,1.15193 -3.34519,1.11334 -3.92714,0.98873 -2.96689,0.53531 -3.25604,0.39025 -3.54561,0.20036 -3.82638,-0.0381 -4.08761,-0.32753 -4.31752,-0.66821 -4.50371,-1.0582 -4.63405,-1.49293 -2.34535,-0.92156 -2.35203,-1.04361 -2.34889,-1.16881 -2.33552,-1.29643 -2.31157,-1.42566 -2.27682,-1.55571 -2.23116,-1.68569 -2.17455,-1.81473 -2.1071,-1.94197 -2.029,-2.06655 -1.94055,-2.1876 -1.84212,-2.30435 -1.73421,-2.41602 -1.61736,-2.52189 -1.49217,-2.62132 -1.35935,-2.71374 -1.21955,-2.79859 -1.07358,-2.87546 -0.92215,-2.94397 -0.76606,-3.00379 -0.60608,-3.05471 -0.44297,-3.09655 -0.27751,-3.1292 -0.1104,-3.1526 0.0576,-3.16679 0.22593,-3.17177 0.39382,-3.16768 0.56071,-3.15462 0.72602,-3.13278 0.88921,-3.10234 1.04979,-3.06351 1.20728,-3.01656 1.36125,-2.96172 1.51129,-2.89926 1.65705,-2.82947 1.79817,-2.75263 1.93435,-2.66904 2.06527,-2.57899 2.19071,-2.48279 2.31038,-2.38075 2.42409,-2.27316 2.53159,-2.16035 2.63272,-2.0426 2.72727,-1.92025 2.81512,-1.7936 2.89606,-1.66296 2.96998,-1.52865 3.03675,-1.39098 3.09623,-1.2503 3.14833,-1.1069 3.19292,-0.96114 3.22994,-0.81334 3.25928,-0.66384 3.28091,-0.513 3.29473,-0.36118 3.30073,-0.20873 3.29886,-0.056 3.28911,0.0965 3.27147,0.24858 3.24599,0.39971 3.21268,0.54952 3.17161,0.69758 3.12287,0.84348 3.06655,0.98679 3.00281,1.12707 2.9318,1.26391 2.8537,1.39683 2.76875,1.52543 2.67721,1.64925 2.57937,1.76787 2.47554,1.88087 2.3661,1.98784 2.25143,2.0884 2.13197,2.18215 2.00818,2.26878 1.88057,2.34793 1.74963,2.41934 1.61596,2.48274 1.4801,2.53793 1.34268,2.58474 1.20429,2.62303 1.06556,2.65275 0.92714,2.67386 0.78965,2.68641 0.6537,2.69048 0.51995,2.68622 0.38895,2.67381 0.2613,2.65352 0.13753,2.62566 0.0182,2.59055 -0.30192,5.04893 -0.7159,4.83246 -1.08111,4.5748 -1.39426,4.28469 -1.65376,3.97106 -1.85984,3.64285 -2.01429,3.30843 -2.12021,2.97551 -2.18178,2.65074 -2.20396,2.33971 -2.19212,2.04681 v 0" /></g></g><g
       id="g44"><g
         clip-path="url(#clipPath50)"
         id="g46"><path
           id="path52"
           style="fill:none;stroke:#0000ff;stroke-width:1.5;stroke-linecap:square;stroke-linejoin:round;stroke-miterlimit:10;stroke-dasharray:none;stroke-opacity:0.37000002"
           d="m 300.23028,213.84 -1.29158,2.42103 -1.4781,2.33342 -1.64872,2.23416 -1.80267,2.12489 -1.9394,2.00728 -2.05863,1.88306 -2.16028,1.75387 -2.24451,1.62133 -2.31168,1.48702 -2.36235,1.35238 -2.3972,1.21877 -2.41711,1.08743 -2.42304,0.95943 -4.81327,1.553 -4.69681,1.10262 -4.50974,0.70429 -4.27071,0.36243 -3.99717,0.0779 -3.70447,-0.15119 -3.40556,-0.32883 -4.5592,-0.72695 -3.9429,-0.89348 -4.4198,-1.28085 -5.22949,-1.8081 -5.35542,-1.82464 -2.94551,-0.75435 -2.96524,-0.52201 -7.5341,-1.1147 -2.33766,-0.59294 -2.35739,-0.87548 -1.51419,-0.78342 -1.40334,-0.96583 -1.22739,-1.15649 -0.98438,-1.34108 -0.68104,-1.50283 -0.33351,-1.62503 0.0339,-1.69451 0.39277,-1.70448 0.71585,-1.65608 0.98206,-1.55782 1.17957,-1.42324 1.30616,-1.26786 2.05671,-1.60027 2.02441,-1.26496 2.4684,-1.26929 5.93409,-2.84951 1.12994,-0.86855 1.03345,-1.06521 1.31518,-1.73837 4.9202,-7.02656 2.13743,-2.57398 2.76268,-2.92013 2.26773,-2.11787 2.66373,-2.22367 3.10287,-2.28687 3.57641,-2.29103 4.06995,-2.2186 4.56281,-2.05259 2.45883,-0.93077 2.56933,-0.84794 2.67138,-0.75027 2.76277,-0.63764 2.84131,-0.51024 2.90482,-0.36862 2.95125,-0.21361 2.97872,-0.0464 2.98559,0.13145 2.97048,0.31815 2.93241,0.51157 2.87073,0.7094 2.78526,0.90916 2.67619,1.10822 2.54416,1.30396 2.39022,1.49377 2.2158,1.67515 2.02265,1.84573 1.81283,2.00334 1.58866,2.14611 1.35259,2.2724 1.10724,2.38089 0.85529,2.47059 0.59945,2.54085 0.34238,2.59129 0.0867,2.6219 -0.1652,2.63293 -0.41089,2.62491 -0.64821,2.59861 -0.87524,2.55504 -1.09021,2.4954 v 0" /></g></g><g
       id="g54"><g
         clip-path="url(#clipPath60)"
         id="g56"><path
           id="path62"
           style="fill:none;stroke:#008000;stroke-width:1.5;stroke-linecap:square;stroke-linejoin:round;stroke-miterlimit:10;stroke-dasharray:none;stroke-opacity:0.37000002"
           d="m 277.80389,213.84 2.48248,1.83864 2.44099,1.99486 2.38552,2.15028 2.31597,2.30379 2.23231,2.45418 2.13473,2.60035 2.0235,2.74112 1.89913,2.87542 1.76215,3.00224 1.61335,3.12057 1.45352,3.22958 1.28363,3.32847 1.10472,3.41659 0.91788,3.49339 0.72424,3.5584 0.52499,3.61136 0.32133,3.65202 0.1144,3.68031 -0.0946,3.69626 -0.30462,3.69996 -0.51454,3.69161 -0.72337,3.67151 -0.93018,3.63999 -1.13409,3.59744 -1.33432,3.54431 -1.53015,3.48108 -1.72095,3.40827 -1.90614,3.32637 -2.08525,3.23593 -2.25784,3.13748 -2.42355,3.03153 -2.58209,2.91861 -2.73319,2.79923 -2.87667,2.67386 -3.01235,2.543 -3.14011,2.40706 -3.25987,2.2665 -3.37156,2.1217 -3.47511,1.97307 -3.57053,1.82095 -3.65778,1.66568 -3.73686,1.50759 -3.80778,1.34698 -3.87055,1.1841 -3.92516,1.01924 -3.97162,0.85265 -4.00994,0.68452 -4.04008,0.51509 -4.06205,0.34457 -4.07581,0.17312 -4.08132,9.4e-4 -4.07851,-0.17182 -4.0673,-0.34499 -4.04759,-0.51842 -4.01927,-0.69196 -3.98219,-0.86545 -3.93614,-1.03877 -3.88095,-1.21174 -3.81638,-1.38423 -3.74214,-1.55606 -3.65794,-1.72703 -3.56344,-1.89697 -3.45826,-2.06563 -3.342,-2.23275 -3.2142,-2.398 -3.07444,-2.56104 -2.9222,-2.72143 -2.75703,-2.87866 -2.57845,-3.03213 -2.38603,-3.18114 -2.1794,-3.32484 -1.95827,-3.46229 -1.72253,-3.59237 -1.47219,-3.71379 -1.20756,-3.82515 -0.92922,-3.92485 -0.63813,-4.0112 -0.33564,-4.0823 -0.0237,-4.1363 0.29546,-4.17123 0.61873,-4.18524 0.94264,-4.17661 1.26313,-4.14388 1.57572,-4.08595 1.87557,-4.00224 2.15769,-3.8927 2.41712,-3.75802 2.64919,-3.59954 2.84973,-3.41941 3.01535,-3.2204 3.14358,-3.0059 3.23305,-2.77981 3.28359,-2.54626 3.2962,-2.3095 3.27296,-2.07371 3.21691,-1.84276 3.13184,-1.6201 3.02204,-1.40864 2.89212,-1.21069 5.33698,-1.8891 4.6877,-1.28903 4.02568,-0.81908 3.39429,-0.46744 4.03773,-0.25547 2.98997,0.0603 2.76832,0.295 2.4546,0.51251 2.48421,0.5608 0.42704,-0.19985 0.71489,-0.69549 1.68577,-1.63368 1.41765,-1.09588 2.11585,-1.3112 2.19726,-1.0721 2.84158,-1.0654 2.30055,-0.65097 2.65187,-0.55339 3.01744,-0.40487 3.38777,-0.1996 3.75173,0.0667 4.09686,0.39631 4.40963,0.78931 4.67574,1.24325 2.41912,0.80956 2.46157,0.9434 2.49417,1.08292 2.51608,1.22744 2.52651,1.37617 2.52479,1.52825 2.51029,1.68275 v 0" /></g></g><g
       id="g64"><g
         clip-path="url(#clipPath70)"
         id="g66"><path
           id="path72"
           style="fill:none;stroke:#ff0000;stroke-width:1.5;stroke-linecap:square;stroke-linejoin:round;stroke-miterlimit:10;stroke-dasharray:none;stroke-opacity:0.37000002"
           d="m 238.34765,213.84 -2.45409,0.90597 -3.11632,0.88438 -2.5014,0.47388 -2.52999,0.23206 -2.16582,-0.0402 -2.13999,-0.29771 -1.15157,-0.11851 -0.39213,0.16625 -0.49634,0.50734 -2.01266,2.33712 -1.61593,1.50718 -1.87036,1.48146 -2.70756,1.81671 -2.42562,1.39306 -3.04723,1.51388 -3.78059,1.58804 -4.6172,1.58556 -5.53171,1.47157 -3.12113,0.64835 -3.35692,0.56212 -3.58601,0.45293 -3.80314,0.31976 -4.00278,0.16225 -4.17935,-0.0193 -4.32752,-0.22356 -4.44249,-0.44867 -4.52018,-0.69179 -4.55757,-0.94944 -4.55281,-1.21763 -4.50527,-1.49199 -4.41561,-1.76797 -4.28567,-2.04115 -4.11833,-2.30729 -3.91732,-2.5626 -3.6869,-2.80383 -3.43179,-3.0283 -3.15672,-3.23402 -2.86643,-3.41959 -2.56537,-3.58422 -2.2576,-3.72762 -1.94679,-3.84997 -1.63604,-3.95178 -1.32805,-4.03382 -1.0249,-4.09708 -0.72834,-4.14266 -0.43965,-4.1717 -0.15977,-4.18541 0.11067,-4.1849 0.37125,-4.17132 0.6218,-4.1457 0.86228,-4.10901 1.09274,-4.06213 1.31338,-4.00588 1.52439,-3.94098 1.72606,-3.86808 1.91863,-3.78776 2.1024,-3.70053 2.27765,-3.60684 2.44463,-3.50709 2.60361,-3.40163 2.75478,-3.29077 2.89837,-3.17479 3.03454,-3.05393 3.16343,-2.92838 3.28519,-2.79836 3.39988,-2.66403 3.50759,-2.52553 3.60835,-2.383016 3.7022,-2.236592 3.78912,-2.086387 3.86907,-1.932502 3.94203,-1.775038 4.00788,-1.61409 4.06657,-1.449752 4.11794,-1.282114 4.16188,-1.111271 4.19819,-0.937318 4.22672,-0.760358 4.24724,-0.580501 4.25951,-0.397869 4.2633,-0.212596 4.25832,-0.02484 4.2443,0.165226 4.2209,0.357396 4.18782,0.551438 4.1447,0.747075 4.09121,0.943992 4.027,1.14182 3.95171,1.340135 3.86502,1.538447 3.76659,1.736197 3.65615,1.932744 3.53347,2.127366 3.39834,2.319249 3.25067,2.507487 3.09045,2.691082 2.91778,2.86893 2.73288,3.03984 2.53614,3.20258 2.32813,3.35576 2.10959,3.49802 1.88147,3.62794 1.64496,3.74408 1.40142,3.84506 1.15248,3.92955 0.89993,3.99632 0.6458,4.04433 0.39222,4.07268 0.14148,4.08076 -0.1041,4.06819 -0.34211,4.03492 -0.57027,3.98119 -0.78635,3.90764 -0.98831,3.81516 -1.17434,3.70502 -1.34288,3.57877 -1.49274,3.43818 -1.62301,3.28527 -1.73321,3.12217 -1.82322,2.95114 -1.89323,2.77442 -1.94381,2.59425 -1.97579,2.41279 -1.99032,2.23202 -3.96097,3.93358 -3.84472,3.26106 -3.64309,2.64614 -3.38165,2.10052 -3.08379,1.62934 -2.76933,1.23248 v 0" /></g></g><g
       id="g74"><g
         clip-path="url(#clipPath80)"
         id="g76"><path
           id="path82"
           style="fill:none;stroke:#0000ff;stroke-width:1.5;stroke-linecap:square;stroke-linejoin:round;stroke-miterlimit:10;stroke-dasharray:none;stroke-opacity:0.43999999"
           d="m 310.66046,213.84 -2.4801,2.70959 -2.73726,2.54384 -2.96025,2.36171 -3.14798,2.1668 -3.29983,1.96282 -3.41585,1.75338 -3.49665,1.54198 -3.54346,1.33195 -3.55801,1.12635 -3.54254,0.92787 -3.49965,0.73884 -3.43231,0.56121 -3.34363,0.39644 -3.23685,0.2456 -3.11525,0.10938 -5.82217,-0.13055 -5.23411,-0.49957 -4.62867,-0.76119 -4.03741,-0.92974 -3.48241,-1.0219 -2.97725,-1.05443 -3.64288,-1.54939 -2.82725,-1.42921 -3.37328,-1.99658 -4.68545,-2.88411 -0.99835,-0.32717 -1.01627,-0.11502 -1.46456,0.11609 -6.34612,0.93907 -2.10918,-0.0314 -1.43265,-0.2104 -1.3401,-0.41703 -1.11434,-0.65663 -0.42716,-0.42072 -0.31804,-0.47867 -0.1955,-0.53035 -0.0639,-0.57305 0.0716,-0.60451 0.20506,-0.6232 0.77517,-1.24913 1.16046,-1.17209 1.39451,-1.02431 1.48144,-0.84258 2.14393,-0.92547 2.4129,-0.72709 2.51405,-0.46582 2.39202,-0.40032 0.47772,-0.29471 0.36107,-0.49423 0.51791,-1.25217 1.17836,-2.90412 1.26269,-2.4668 1.53436,-2.50184 1.43592,-2.04342 1.87413,-2.37769 2.42137,-2.7273 3.08764,-3.06983 3.87335,-3.37146 2.26499,-1.77377 2.49808,-1.8124 2.73813,-1.83134 2.98115,-1.82686 3.2223,-1.79531 3.456,-1.7334 3.676,-1.63846 3.87564,-1.50857 4.04812,-1.34293 4.18684,-1.14189 4.28565,-0.90714 4.33935,-0.6417 4.34383,-0.34987 4.29642,-0.037 4.19597,0.29055 4.04287,0.62604 3.83902,0.9624 3.58766,1.29263 3.29314,1.61008 2.96067,1.90875 2.59602,2.18338 2.20531,2.42959 1.79476,2.64394 1.37051,2.8239 0.93852,2.9678 0.50445,3.07484 0.0736,3.14488 -0.34902,3.17847 -0.75883,3.17674 -1.15156,3.14129 -1.52336,3.07424 -1.87072,2.978 -2.19052,2.85542 v 0" /></g></g><g
       id="g84"><g
         clip-path="url(#clipPath90)"
         id="g86"><path
           id="path92"
           style="fill:none;stroke:#008000;stroke-width:1.5;stroke-linecap:square;stroke-linejoin:round;stroke-miterlimit:10;stroke-dasharray:none;stroke-opacity:0.43999999"
           d="m 275.42354,213.84 3.41002,1.79328 3.41409,2.01023 3.39249,2.22979 3.34401,2.44948 3.2679,2.66668 3.16396,2.87876 3.03251,3.08305 2.87446,3.27707 2.69126,3.45846 2.48477,3.62516 2.25736,3.77536 2.01161,3.90769 1.7504,4.02105 1.47672,4.11478 1.19355,4.18856 0.90391,4.24242 0.61058,4.27668 0.31625,4.29192 0.0233,4.28895 -0.26608,4.26874 -0.55006,4.23237 -0.82702,4.18101 -1.09569,4.11585 -1.35501,4.03811 -1.60415,3.94896 -1.84256,3.84956 -2.06982,3.74096 -2.28572,3.62421 -2.49014,3.50022 -2.68312,3.36985 -2.86475,3.23388 -3.03522,3.09301 -3.19475,2.94788 -3.34362,2.79902 -3.48209,2.64694 -3.61049,2.49209 -3.72911,2.33484 -3.83824,2.17553 -3.93821,2.01446 -4.02925,1.8519 -4.11168,1.68808 -4.1857,1.52322 -4.25157,1.35747 -4.30949,1.19103 -4.35965,1.02402 -4.40221,0.85659 -4.43732,0.68885 -4.46513,0.5209 -4.48571,0.35284 -4.49915,0.18477 -4.50553,0.0167 -4.50486,-0.15118 -4.49717,-0.31893 -4.48243,-0.48645 -4.4606,-0.65374 -4.4316,-0.82075 -4.39531,-0.98748 -4.35156,-1.15396 -4.30016,-1.32017 -4.24083,-1.4862 -4.17323,-1.65208 -4.09696,-1.81791 -4.0115,-1.98377 -3.91625,-2.14981 -3.81046,-2.31617 -3.69325,-2.483 -3.56359,-2.65048 -3.4202,-2.81879 -3.26166,-2.98809 -3.08625,-3.15849 -2.89204,-3.33008 -2.67682,-3.5028 -2.43813,-3.67644 -2.1733,-3.85057 -1.87949,-4.02444 -1.55384,-4.19681 -1.19364,-4.36598 -0.79658,-4.52946 -0.36115,-4.68397 0.11291,-4.82526 0.62407,-4.94809 1.16837,-5.04618 1.73883,-5.1125 2.32493,-5.13947 2.9125,-5.11962 3.4838,-5.04634 4.01842,-4.91474 4.49473,-4.72265 4.89171,-4.47134 5.1914,-4.16599 5.38099,-3.81558 5.45456,-3.43232 5.41378,-3.03042 5.26772,-2.62475 5.03142,-2.22929 4.72401,-1.85597 4.3663,-1.51387 3.97883,-1.20883 3.58007,-0.94363 5.99206,-1.24975 4.57938,-0.63678 3.40765,-0.25287 3.46221,6.5e-4 2.61411,0.25845 1.74343,0.39882 1.2248,0.30131 0.60365,-0.84363 0.84241,-0.83005 1.32661,-1.00571 1.61075,-0.96223 2.34168,-1.09075 2.05985,-0.74747 2.51919,-0.70911 3.02339,-0.60983 3.56377,-0.43805 4.12895,-0.18327 4.70367,0.16371 5.26742,0.61012 2.83451,0.50473 2.95881,0.6551 3.07312,0.81812 3.17506,0.99322 3.26217,1.17959 3.33194,1.37605 3.38199,1.58121 v 0" /></g></g><g
       id="g94"><g
         clip-path="url(#clipPath100)"
         id="g96"><path
           id="path102"
           style="fill:none;stroke:#ff0000;stroke-width:1.5;stroke-linecap:square;stroke-linejoin:round;stroke-miterlimit:10;stroke-dasharray:none;stroke-opacity:0.43999999"
           d="m 230.29782,213.84 -2.71437,0.58074 -2.43772,0.25113 -1.7652,-0.0528 -1.32577,-0.27448 -0.63001,-0.11379 -0.71341,1.06321 -1.09907,1.15956 -1.36915,1.17781 -2.39813,1.72777 -2.50226,1.53844 -3.54476,1.88379 -4.918,2.21317 -3.08112,1.20444 -3.54738,1.24267 -4.04287,1.25048 -4.55507,1.21911 -5.06717,1.14015 -5.5586,1.00639 -6.0062,0.81299 -6.38608,0.55844 -6.67609,0.24523 -6.8583,-0.11982 -6.92112,-0.52603 -6.86076,-0.95976 -6.68143,-1.4058 -6.39453,-1.84895 -6.01691,-2.27536 -5.56863,-2.67373 -5.07073,-3.03573 -4.54326,-3.35624 -4.00393,-3.63305 -3.467237,-3.86633 -2.944324,-4.05802 -2.443027,-4.21124 -1.96833,-4.32978 -1.522871,-4.41759 -1.107487,-4.47864 -0.721718,-4.51657 -0.364232,-4.53466 -0.03317,-4.5358 0.273593,-4.52246 0.558279,-4.49667 0.823058,-4.46017 1.069983,-4.41434 1.300936,-4.36036 1.517609,-4.2991 1.721501,-4.23134 1.913917,-4.15767 2.095987,-4.07856 2.268673,-3.9944 2.4328,-3.90549 2.58906,-3.81212 2.73802,-3.71446 2.88016,-3.61271 3.01588,-3.50699 3.14549,-3.39743 3.26925,-3.28417 3.38736,-3.16725 3.49998,-3.04679 3.60723,-2.922862 3.70917,-2.79551 3.80588,-2.664808 3.89735,-2.530807 3.98361,-2.393548 4.06462,-2.253071 4.14034,-2.109409 4.21072,-1.962581 4.27567,-1.812605 4.33507,-1.659486 4.38885,-1.503218 4.4368,-1.343785 4.47882,-1.181161 4.51468,-1.015304 4.54418,-0.846161 4.56705,-0.673665 4.58303,-0.497735 4.59178,-0.318273 4.59294,-0.135178 4.58609,0.05167 4.57077,0.242404 4.54642,0.437143 4.51248,0.636022 4.46826,0.839156 4.41304,1.046645 4.34598,1.258557 4.2662,1.474907 4.17273,1.695647 4.06453,1.920634 3.94051,2.149599 3.79953,2.382125 3.64046,2.617601 3.46219,2.855177 3.26367,3.093734 3.04404,3.331825 2.8026,3.567648 2.53901,3.799003 2.25331,4.02327 1.94608,4.23743 1.61851,4.43803 1.27254,4.62134 0.91092,4.7833 0.53723,4.91981 0.15599,5.02681 -0.22755,5.10048 -0.60739,5.13754 -0.97707,5.13541 -1.32992,5.09252 -1.6593,5.00841 -1.95905,4.8839 -2.22371,4.72114 -2.44897,4.52348 -2.63174,4.29543 -2.77044,4.04232 -2.86492,3.77014 -2.91654,3.48511 -2.92782,3.1934 -2.90239,2.90091 -2.84461,2.61291 -2.75934,2.334 -2.65157,2.06789 -4.91466,3.40217 -4.33283,2.54743 -3.72649,1.84719 -3.13957,1.29433 -2.59974,0.872 -1.11637,0.31268 v 0" /></g></g><g
       id="g104"><g
         clip-path="url(#clipPath110)"
         id="g106"><path
           id="path112"
           style="fill:none;stroke:#0000ff;stroke-width:1.5;stroke-linecap:square;stroke-linejoin:round;stroke-miterlimit:10;stroke-dasharray:none;stroke-opacity:0.51000001"
           d="m 319.06668,213.84 -3.63774,2.93591 -3.96762,2.69371 -4.24391,2.43018 -4.46331,2.15131 -4.62372,1.86338 -4.72448,1.57275 -4.76653,1.28557 -4.75237,1.00761 -4.68603,0.74397 -4.5728,0.49891 -4.41894,0.27573 -4.23144,0.0767 -4.01747,-0.0969 -3.78424,-0.24492 -3.5385,-0.36773 -3.28653,-0.46663 -5.81849,-1.14332 -4.85563,-1.30103 -3.98304,-1.34457 -3.22372,-1.30906 -3.6701,-1.79499 -2.59643,-1.53005 -2.30542,-1.6143 -2.18818,-1.84208 -1.51529,-1.23874 -0.49351,-0.13546 -0.56799,0.0729 -1.21075,0.44322 -2.27257,0.80982 -2.06043,0.48437 -1.85876,0.17771 -1.22398,-0.0856 -0.99946,-0.32506 -0.34411,-0.26301 -0.2054,-0.3274 -0.0489,-0.38327 0.11465,-0.42576 0.27301,-0.45135 0.94467,-0.9071 1.28279,-0.81133 2.05115,-0.90096 1.77534,-0.52874 2.03668,-0.35346 1.77737,-0.0568 0.60985,-0.0754 0.13422,-0.23619 1.03756,-3.25804 1.16105,-2.31078 1.64066,-2.63281 1.69293,-2.33435 2.37839,-2.89358 3.28423,-3.5147 4.43481,-4.14978 2.72407,-2.29521 3.09609,-2.41834 3.48625,-2.51279 3.88545,-2.56899 4.28197,-2.5774 4.66189,-2.52921 5.00968,-2.41733 5.30921,-2.23723 5.54498,-1.98778 5.70345,-1.67169 5.77427,-1.29556 5.75115,-0.86956 5.63234,-0.40666 5.42055,0.0785 5.1224,0.57084 4.74748,1.0557 4.3073,1.52001 3.81415,1.9528 3.28024,2.34541 2.71695,2.69158 2.13446,2.98716 1.54156,3.22985 0.94577,3.41879 0.35349,3.55419 -0.22969,3.63705 -0.79868,3.66899 -1.34863,3.65204 -1.87465,3.58867 -2.37175,3.48177 -2.8348,3.33467 -3.25852,3.15124 v 0" /></g></g><g
       id="g114"><g
         clip-path="url(#clipPath120)"
         id="g116"><path
           id="path122"
           style="fill:none;stroke:#008000;stroke-width:1.5;stroke-linecap:square;stroke-linejoin:round;stroke-miterlimit:10;stroke-dasharray:none;stroke-opacity:0.51000001"
           d="m 271.40095,213.84 4.23085,1.69331 4.31824,1.96658 4.36368,2.24884 4.36279,2.53544 4.3126,2.82128 4.21154,3.10101 4.05979,3.3693 3.85918,3.6211 3.61307,3.85194 3.32623,4.05802 3.00448,4.23652 2.65432,4.38551 2.28262,4.50405 1.89625,4.59211 1.50174,4.65044 1.1051,4.68046 0.71161,4.68403 0.32575,4.66343 -0.0488,4.62105 -0.40938,4.55938 -0.7538,4.48085 -1.08073,4.38779 -1.38942,4.28235 -1.67954,4.16649 -1.9512,4.0419 -2.20476,3.91012 -2.4408,3.77243 -2.66008,3.62992 -2.86338,3.48351 -3.05159,3.33395 -3.22558,3.18188 -3.38618,3.02777 -3.53424,2.87206 -3.67053,2.71505 -3.79573,2.55699 -3.91056,2.39812 -4.01556,2.23856 -4.11132,2.07848 -4.19831,1.91796 -4.27694,1.75711 -4.34763,1.596 -4.41069,1.43468 -4.46643,1.27325 -4.51512,1.11173 -4.55696,0.95022 -4.59217,0.78874 -4.6209,0.62737 -4.64331,0.46616 -4.65951,0.30518 -4.6696,0.14448 -4.67367,-0.0159 -4.67177,-0.17583 -4.66397,-0.33531 -4.65027,-0.49428 -4.63069,-0.65268 -4.60524,-0.81049 -4.57384,-0.96763 -4.53647,-1.12411 -4.49303,-1.27993 -4.44337,-1.43508 -4.38734,-1.58959 -4.32469,-1.74355 -4.25513,-1.89704 -4.17825,-2.05021 -4.09356,-2.20325 -4.00039,-2.35641 -3.89792,-2.51003 -3.78507,-2.66452 -3.6605,-2.82042 -3.52249,-2.97832 -3.36884,-3.139 -3.19684,-3.30332 -3.00302,-3.47227 -2.78315,-3.64695 -2.53199,-3.82848 -2.2432,-4.01792 -1.90929,-4.21611 -1.52164,-4.42343 -1.07073,-4.63937 -0.54672,-4.86211 0.0596,-5.08778 0.75483,-5.30975 1.54105,-5.51785 2.41217,-5.69782 3.35065,-5.83131 4.32455,-5.89688 5.28616,-5.87235 6.17431,-5.73846 6.92098,-5.48368 7.46214,-5.10831 7.75044,-4.62699 7.76584,-4.06757 7.52028,-3.46686 7.05437,-2.86384 6.42782,-2.29321 5.70696,-1.78061 4.95345,-1.34078 4.21697,-0.97839 6.45147,-1.15895 4.32197,-0.48551 3.80439,-0.13807 2.32729,0.15151 1.36941,0.30434 0.30303,0.0245 0.32827,-0.42866 0.69961,-0.62822 1.29398,-0.86611 1.7074,-0.86906 1.61942,-0.64971 2.09041,-0.6624 2.6391,-0.62203 3.26986,-0.51394 3.98498,-0.32096 4.77947,-0.0226 2.70783,0.13982 2.92664,0.26431 3.14678,0.40819 3.36435,0.57237 3.5747,0.75735 3.77249,0.96307 3.9519,1.18878 4.10675,1.43298 v 0" /></g></g><g
       id="g124"><g
         clip-path="url(#clipPath130)"
         id="g126"><path
           id="path132"
           style="fill:none;stroke:#ff0000;stroke-width:1.5;stroke-linecap:square;stroke-linejoin:round;stroke-miterlimit:10;stroke-dasharray:none;stroke-opacity:0.51000001"
           d="m 225.91418,213.84 -2.16297,0.29511 -1.5048,-0.0219 -0.81143,-0.2221 -0.0272,-0.003 -0.037,0.0813 -0.39183,0.52931 -1.00812,0.95142 -1.58182,1.19865 -1.93636,1.25713 -3.13674,1.76914 -4.96304,2.391 -3.40525,1.44059 -4.15425,1.58837 -4.99029,1.70263 -5.88583,1.76094 -6.79599,1.73875 -7.65971,1.61315 -8.40546,1.36781 -8.9618,0.99778 -9.27082,0.51283 -9.30036,-0.0626 -9.05083,-0.69316 -8.554,-1.33891 -7.86471,-1.96241 -7.04842,-2.53411 -6.16942,-3.03505 -5.282147,-3.45665 -4.427062,-3.7989 -3.630179,-4.0676 -2.905122,-4.27165 -2.256127,-4.42113 -1.681114,-4.5258 -1.174274,-4.59446 -0.727987,-4.63447 -0.33413,-4.65188 0.01514,-4.65141 0.326947,-4.63673 0.60752,-4.6106 0.862154,-4.57507 1.095266,-4.53169 1.310488,-4.48157 1.510764,-4.42552 1.698471,-4.36414 1.875506,-4.29789 2.043378,-4.22704 2.203278,-4.15186 2.356141,-4.07255 2.502699,-3.9892 2.643518,-3.90197 2.779032,-3.81094 2.90958,-3.71621 3.03539,-3.61785 3.15666,-3.51592 3.27352,-3.41054 3.38605,-3.30174 3.49429,-3.18962 3.5983,-3.074238 3.69805,-2.955683 3.79355,-2.834019 3.88475,-2.709318 3.97165,-2.581655 4.05416,-2.451095 4.13225,-2.317705 4.20585,-2.181545 4.27488,-2.042669 4.33928,-1.901125 4.39895,-1.756952 4.45379,-1.610174 4.5037,-1.460809 4.54857,-1.308854 4.58826,-1.154292 4.62261,-0.997082 4.65146,-0.837159 4.6746,-0.674433 4.69182,-0.50878 4.70282,-0.340041 4.70731,-0.168017 4.70489,0.0075 4.69513,0.186905 4.6775,0.370442 4.65138,0.558543 4.61603,0.751667 4.57059,0.950328 4.51402,1.155096 4.44514,1.366584 4.36254,1.585442 4.26464,1.812327 4.14955,2.047872 4.01524,2.292647 3.85935,2.547086 3.67937,2.811413 3.4726,3.085524 3.23628,3.368871 2.96766,3.660298 2.66427,3.957867 2.32411,4.258683 1.94599,4.55871 1.52989,4.85264 1.07737,5.13381 0.59204,5.39424 0.0798,5.62487 -0.45074,5.81588 -0.98854,5.95735 -1.52016,6.03998 -2.03052,6.05606 -2.50388,6.00033 -2.925,5.87078 -3.28052,5.66923 -3.56018,5.4013 -3.75773,5.07618 -3.87149,4.70587 -3.9042,4.30401 -3.86257,3.88486 -3.75637,3.46202 -3.59723,3.04763 -3.39762,2.65161 -3.16978,2.28152 -2.92498,1.94235 -5.09481,3.00305 -4.12302,2.05391 -3.25362,1.35183 -2.51755,0.85328 -2.69069,0.67667 v 0" /></g></g><g
       id="g134"><g
         clip-path="url(#clipPath140)"
         id="g136"><path
           id="path142"
           style="fill:none;stroke:#0000ff;stroke-width:1.5;stroke-linecap:square;stroke-linejoin:round;stroke-miterlimit:10;stroke-dasharray:none;stroke-opacity:0.57999998"
           d="m 331.97748,213.84 -5.40697,3.28379 -5.97303,2.91692 -6.44903,2.51004 -6.8133,2.07534 -7.04848,1.62772 -7.14404,1.18354 -7.09816,0.75918 -6.91822,0.36943 -6.61988,0.026 -6.22527,-0.26331 -5.76007,-0.4951 -5.25082,-0.66992 -4.72233,-0.79161 -4.19596,-0.86631 -3.68864,-0.90144 -5.98799,-1.78879 -4.41322,-1.64127 -3.18409,-1.417 -3.13367,-1.67737 -2.27829,-1.51839 -1.45242,-1.25108 -1.06122,-0.94758 -1.38388,0.73454 -1.1983,0.40539 -1.21445,0.22806 -0.70046,-0.0244 -0.20236,-0.0969 -0.0532,-0.15536 0.11154,-0.20307 0.64558,-0.4688 1.38279,-0.58332 1.63534,-0.39726 1.08915,-0.0359 0.0911,-0.007 0.007,-0.0877 0.13408,-0.58756 0.42466,-1.02493 0.70841,-1.30355 1.54998,-2.33468 1.92134,-2.47758 3.12044,-3.53709 2.19111,-2.25758 2.72572,-2.62399 3.35016,-3.006 4.05892,-3.38317 4.83526,-3.72694 5.64879,-4.00166 6.45485,-4.16788 7.19733,-4.18775 7.8152,-4.03247 8.2522,-3.68923 8.46722,-3.16579 8.44217,-2.49059 8.18464,-1.70789 7.72452,-0.86963 7.10613,-0.0265 6.37884,0.77875 5.58875,1.51566 4.77322,2.16603 3.95874,2.72238 3.16096,3.18501 2.38654,3.55892 1.63546,3.85131 0.90345,4.06955 0.18412,4.22013 -0.52929,4.30788 -1.24229,4.33589 -1.95803,4.30557 -2.67614,4.21718 -3.39198,4.07032 -4.09607,3.86484 -4.774,3.60168 v 0" /></g></g><g
       id="g144"><g
         clip-path="url(#clipPath150)"
         id="g146"><path
           id="path152"
           style="fill:none;stroke:#008000;stroke-width:1.5;stroke-linecap:square;stroke-linejoin:round;stroke-miterlimit:10;stroke-dasharray:none;stroke-opacity:0.57999998"
           d="m 261.90554,213.84 5.56069,1.43835 5.93146,1.81196 6.22089,2.21746 6.40587,2.64353 6.46792,3.07598 6.39565,3.49898 6.18654,3.89655 5.84743,4.25424 5.39361,4.56057 4.84681,4.80802 4.23254,4.99329 3.57708,5.11707 2.90517,5.18332 2.23805,5.19826 1.59258,5.16941 0.98095,5.10464 0.41097,5.01156 -0.11326,4.89698 -0.59058,4.76677 -1.02202,4.6257 -1.41001,4.47754 -1.75784,4.32515 -2.06927,4.17055 -2.34807,4.01521 -2.59797,3.86003 -2.82238,3.70557 -3.02443,3.55214 -3.20686,3.39978 -3.37209,3.24848 -3.52217,3.09811 -3.65888,2.9485 -3.78368,2.79945 -3.89783,2.6508 -4.00236,2.50233 -4.09814,2.35393 -4.18586,2.20541 -4.26613,2.05669 -4.33939,1.90768 -4.40607,1.75829 -4.46645,1.6085 -4.5208,1.45829 -4.56935,1.30765 -4.61225,1.1566 -4.64963,1.00518 -4.68161,0.85342 -4.70829,0.70141 -4.72973,0.54918 -4.746,0.39686 -4.75714,0.24448 -4.76321,0.0922 -4.76423,-0.06 -4.76023,-0.21181 -4.75126,-0.36331 -4.73731,-0.5143 -4.71845,-0.66471 -4.69464,-0.81441 -4.66595,-0.96328 -4.63236,-1.11122 -4.5939,-1.25814 -4.55057,-1.40391 -4.50234,-1.54846 -4.44924,-1.69169 -4.3912,-1.83356 -4.32817,-1.97399 -4.26009,-2.11296 -4.18681,-2.25047 -4.10812,-2.3866 -4.02376,-2.52143 -3.93329,-2.65517 -3.83611,-2.7881 -3.73136,-2.92072 -3.61775,-3.05365 -3.49345,-3.18787 -3.35583,-3.32468 -3.20102,-3.46593 -3.02354,-3.61414 -2.81539,-3.77265 -2.56521,-3.94594 -2.25685,-4.13974 -1.86781,-4.36114 -1.36738,-4.61835 -0.71539,-4.91991 0.13773,-5.27259 1.24668,-5.67745 2.65955,-6.12332 4.39426,-6.57788 6.40214,-6.97904 8.52845,-7.23376 10.49702,-7.23409 11.95643,-6.89519 12.59916,-6.20222 12.3003,-5.23409 11.17915,-4.13934 9.5351,-3.07677 7.71024,-2.16103 5.9742,-1.44264 7.75988,-1.4792 4.03803,-0.50124 3.00542,-0.12241 1.12209,-0.043 0.6951,-0.48339 1.34131,-0.63398 1.85318,-0.60431 1.84884,-0.42796 2.54135,-0.40521 3.46772,-0.31393 4.67565,-0.10626 2.88526,0.079 3.29814,0.20565 3.74078,0.3676 4.20389,0.56938 4.67403,0.81446 5.13347,1.10444 v 0" /></g></g><g
       id="g154"><g
         clip-path="url(#clipPath160)"
         id="g156"><path
           id="path162"
           style="fill:none;stroke:#ff0000;stroke-width:1.5;stroke-linecap:square;stroke-linejoin:round;stroke-miterlimit:10;stroke-dasharray:none;stroke-opacity:0.57999998"
           d="m 222.49879,213.84 -1.05831,0.0174 -0.10345,0.0687 -0.482,0.42235 -1.12233,0.77648 -1.8599,1.09668 -3.87101,1.96544 -3.22612,1.45603 -4.48506,1.84586 -6.0838,2.25947 -7.98459,2.63647 -10.04239,2.88329 -11.98453,2.88771 -13.45182,2.55675 -14.11644,1.86537 -13.82614,0.88401 -12.67643,-0.24197 -10.95483,-1.35097 -9.005108,-2.3217 -7.107423,-3.09645 -5.428267,-3.67174 -4.030831,-4.07532 -2.910695,-4.34543 -2.030278,-4.51844 -1.342099,-4.62374 -0.801066,-4.68295 -0.369412,-4.71109 -0.0176,-4.71814 0.276508,-4.71058 0.529091,-4.69248 0.751761,-4.66639 0.952755,-4.63386 1.13788,-4.59583 1.311204,-4.55286 1.475558,-4.50529 1.632914,-4.4533 1.78463,-4.39703 1.931633,-4.33657 2.074558,-4.27196 2.213816,-4.20327 2.349679,-4.13056 2.482307,-4.05386 2.611787,-3.97327 2.738151,-3.8888 2.861397,-3.80057 2.98149,-3.70864 3.09839,-3.61306 3.21202,-3.51396 3.32232,-3.4114 3.42921,-3.30548 3.5326,-3.1963 3.63243,-3.08396 3.72859,-2.968549 3.821,-2.850188 3.90961,-2.728978 3.9943,-2.605029 4.07501,-2.47845 4.15166,-2.349355 4.22419,-2.217851 4.29249,-2.084055 4.35653,-1.948071 4.41623,-1.810011 4.47152,-1.669977 4.52234,-1.528072 4.56863,-1.384387 4.6103,-1.239009 4.64733,-1.092015 4.67961,-0.943466 4.70709,-0.793409 4.72967,-0.641867 4.74727,-0.48884 4.75977,-0.334293 4.76703,-0.17815 4.76888,-0.02028 4.76511,0.13949 4.75544,0.301442 4.73953,0.465933 4.71691,0.633442 4.687,0.80459 4.64902,0.98017 4.602,1.161186 4.54462,1.34889 4.47524,1.544822 4.39171,1.750864 4.29127,1.969271 4.17045,2.202716 4.02488,2.454282 3.84908,2.727442 3.63642,3.025946 3.37894,3.353602 3.06739,3.713908 2.69153,4.109436 2.24066,4.54095 1.7047,5.00621 1.07596,5.49847 0.35155,6.00485 -0.46348,6.50498 -1.353,6.97038 -2.28721,7.36538 -3.22209,7.65033 -4.10212,7.78712 -4.86671,7.74645 -5.46002,7.5149 -5.84124,7.09958 -5.99268,6.52825 -5.92248,5.84456 -5.66139,5.09997 -5.25507,4.34484 -4.75459,3.62132 -4.2083,2.95952 -3.65621,2.37694 -5.76961,3.34711 -4.03966,1.99415 -2.74433,1.13892 -2.49645,0.8164 -1.61398,0.34049 v 0" /></g></g><g
       id="g164"><g
         clip-path="url(#clipPath170)"
         id="g166"><path
           id="path172"
           style="fill:none;stroke:#0000ff;stroke-width:1.5;stroke-linecap:square;stroke-linejoin:round;stroke-miterlimit:10;stroke-dasharray:none;stroke-opacity:0.65"
           d="m 349.49992,213.84 -6.70261,3.79045 -8.13993,3.28913 -9.51179,2.66399 -10.66341,1.93958 -11.43377,1.16526 -11.69981,0.40891 -11.41763,-0.25851 -10.63943,-0.78168 -9.49596,-1.13415 -8.15431,-1.32039 -6.77293,-1.36798 -5.47171,-1.31521 -4.32256,-1.20028 -5.92454,-1.95601 -3.41396,-1.3756 -2.52746,-1.24232 -1.55648,-1.02161 -0.37364,-0.19551 -0.62648,0.20637 -0.13609,-0.009 0.15429,-0.0993 0.83009,-0.43675 0.69794,-1.08975 1.02649,-1.32676 2.30588,-2.62319 2.03577,-2.11503 2.95885,-2.87802 4.21034,-3.82559 5.81822,-4.92093 7.73156,-6.05395 9.77228,-7.02544 11.62396,-7.57479 12.90467,-7.47044 13.32146,-6.62908 12.81455,-5.17753 11.57787,-3.39774 9.94349,-1.59567 8.23,0.008 6.65162,1.31207 5.30655,2.3084 4.20904,3.03954 3.32808,3.56383 2.61564,3.93636 2.02199,4.20144 1.50209,4.39156 1.01671,4.52887 0.5313,4.62715 0.0143,4.69354 -0.56467,4.72959 -1.23539,4.73183 -2.02663,4.69189 -2.96345,4.59647 -4.06163,4.42792 -5.31875,4.1658 v 0" /></g></g><g
       id="g174"><g
         clip-path="url(#clipPath180)"
         id="g176"><path
           id="path182"
           style="fill:none;stroke:#008000;stroke-width:1.5;stroke-linecap:square;stroke-linejoin:round;stroke-miterlimit:10;stroke-dasharray:none;stroke-opacity:0.65"
           d="m 245.42307,213.84 6.64527,0.95757 7.92735,1.455 9.14564,2.0712 10.14509,2.78181 10.76455,3.53751 10.88088,4.27054 10.4502,4.90998 9.52474,5.40056 8.23533,5.71586 6.74916,5.86044 5.22473,5.86188 3.78206,5.75854 2.49319,5.58865 1.38791,5.38384 0.46619,5.16683 -0.28909,4.95202 -0.90259,4.7473 -1.40012,4.55597 -1.80539,4.37853 -2.13862,4.2139 -2.41618,4.06023 -2.651,3.91548 -2.85298,3.77762 -3.02963,3.64484 -3.18661,3.51561 -3.32807,3.38863 -3.45707,3.26287 -3.57591,3.13752 -3.68618,3.01192 -3.78911,2.88562 -3.88553,2.75826 -3.97608,2.62956 -4.06116,2.49938 -4.14111,2.36761 -4.2161,2.23419 -4.28629,2.0991 -4.35178,1.96237 -4.4126,1.82405 -4.4688,1.68419 -4.52036,1.5429 -4.56731,1.40025 -4.60963,1.25635 -4.64731,1.11133 -4.68032,0.96529 -4.70866,0.81839 -4.73231,0.67072 -4.75125,0.52244 -4.76548,0.37368 -4.77498,0.22459 -4.77975,0.0753 -4.77979,-0.0741 -4.7751,-0.22331 -4.76569,-0.37233 -4.75156,-0.52099 -4.73274,-0.66912 -4.70923,-0.81658 -4.68107,-0.96324 -4.64828,-1.10895 -4.61089,-1.25357 -4.56894,-1.39695 -4.52247,-1.53896 -4.47151,-1.67947 -4.41613,-1.81833 -4.35635,-1.95542 -4.29225,-2.09059 -4.22387,-2.22374 -4.15126,-2.35474 -4.07449,-2.48345 -3.9936,-2.60979 -3.90863,-2.73365 -3.81962,-2.85496 -3.72653,-2.97366 -3.62933,-3.08972 -3.52786,-3.20325 -3.42174,-3.31439 -3.31029,-3.42357 -3.19215,-3.53157 -3.06479,-3.6398 -2.92338,-3.75086 -2.758846,-3.86933 -2.55409,-4.00327 -2.277073,-4.16668 -1.868236,-4.38336 -1.219062,-4.69253 -0.139582,-5.15445 1.676754,-5.84974 4.643675,-6.85169 9.09358,-8.13221 14.72365,-9.38532 19.8944,-9.93539 22.04466,-9.12543 19.95214,-7.06234 15.10702,-4.63728 9.99363,-2.66663 6.04346,-1.39289 5.38665,-0.99401 2.81235,-0.45301 1.0397,-0.26248 2.03191,-0.29559 2.68659,-0.19125 4.6303,-0.0375 3.3882,0.13038 4.32201,0.31188 5.41882,0.58089 v 0" /></g></g><g
       id="g184"><g
         clip-path="url(#clipPath190)"
         id="g186"><path
           id="path192"
           style="fill:none;stroke:#ff0000;stroke-width:1.5;stroke-linecap:square;stroke-linejoin:round;stroke-miterlimit:10;stroke-dasharray:none;stroke-opacity:0.65"
           d="m 221.45883,213.84 -0.15946,0.0776 -1.13236,0.64693 -3.09375,1.46588 -3.67565,1.55099 -6.49112,2.49009 -10.80065,3.71862 -16.31559,4.93372 -21.40481,5.4588 -23.49341,4.62816 -21.32493,2.53742 -16.364886,0.0742 -11.100693,-1.93934 -6.980933,-3.25359 -4.225507,-4.00099 -2.515763,-4.39275 -1.476771,-4.58831 -0.832466,-4.68236 -0.410583,-4.72505 -0.111466,-4.74135 0.120427,-4.7432 0.315474,-4.73614 0.49014,-4.72268 0.6533,-4.70392 0.809715,-4.68034 0.961926,-4.65212 1.111262,-4.61935 1.258398,-4.58207 1.40365,-4.54032 1.547136,-4.49411 1.688865,-4.44349 1.828784,-4.38852 1.966809,-4.32922 2.102834,-4.26565 2.236745,-4.19789 2.368422,-4.12598 2.497745,-4.05002 2.624588,-3.97004 2.748833,-3.88617 2.870355,-3.79845 2.98905,-3.70699 3.10478,-3.61187 3.21744,-3.51318 3.32694,-3.41103 3.43314,-3.30552 3.53596,-3.19674 3.63528,-3.084802 3.73101,-2.969827 3.82307,-2.851918 3.91135,-2.731193 3.99577,-2.607774 4.07624,-2.481779 4.1527,-2.353334 4.22506,-2.222564 4.29323,-2.0896 4.35719,-1.95457 4.41683,-1.817609 4.47213,-1.678847 4.523,-1.538425 4.5694,-1.396476 4.61131,-1.253138 4.64866,-1.108552 4.68141,-0.962853 4.70955,-0.816182 4.73304,-0.668674 4.75183,-0.520466 4.76593,-0.371687 4.77531,-0.222466 4.77995,-0.07292 4.77982,0.07683 4.77492,0.226704 4.76521,0.376621 4.75064,0.526538 4.73117,0.676453 4.70671,0.826427 4.67709,0.976605 4.64212,1.127257 4.60143,1.27883 4.55448,1.432028 4.50044,1.587916 4.43802,1.748079 4.36523,1.914847 4.27908,2.091605 4.17497,2.28322 4.04598,2.49663 3.8817,2.741599 3.66675,3.031637 3.37859,3.384983 2.98524,3.825342 2.44277,4.381659 1.69465,5.085526 0.6754,5.96391 -0.67615,7.02405 -2.38805,8.22915 -4.40952,9.46913 -6.5626,10.54475 -8.53106,11.19537 -9.93303,11.18924 -10.47556,10.4428 -10.09892,9.0827 -8.9972,7.39072 -7.50302,5.67288 -5.93582,4.14985 -4.51113,2.92328 -5.73489,3.34231 -3.77324,1.83463 -1.86323,0.63247 -0.0602,0.007 v 0" /></g></g><g
       id="g194"><g
         clip-path="url(#clipPath200)"
         id="g196"><path
           id="path202"
           style="fill:none;stroke:#0000ff;stroke-width:1.5;stroke-linecap:square;stroke-linejoin:round;stroke-miterlimit:10;stroke-dasharray:none;stroke-opacity:0.72000002"
           d="m 368.41155,213.84 -4.03004,4.46439 -6.90282,4.04172 -11.04892,3.23643 -16.15449,1.92287 -20.81945,0.19128 -22.85709,-1.49961 -21.04222,-2.55061 -16.43428,-2.73453 -11.25443,-2.31847 -7.02862,-1.70628 -6.49696,-1.88979 -2.89394,-1.1248 -0.0591,-0.0291 0.0514,-0.0628 0.95012,-1.05716 1.20703,-1.20876 2.62233,-2.46371 5.47931,-4.8204 10.58094,-8.68034 17.70203,-13.42247 23.71517,-16.29897 24.13932,-14.38373 19.00008,-8.79769 12.59503,-3.22952 7.84351,0.45983 5.03612,2.45733 3.52265,3.44919 2.71319,3.93543 2.2545,4.18491 1.96342,4.32601 1.75027,4.41702 1.57205,4.48381 1.40781,4.53775 1.24641,4.58392 1.0803,4.62465 0.90156,4.661 0.6986,4.69334 0.45172,4.72126 0.126,4.7426 -0.3403,4.7515 -1.05429,4.73383 -2.19393,4.65872 v 0" /></g></g><g
       id="g204"><g
         clip-path="url(#clipPath210)"
         id="g206"><path
           id="path212"
           style="fill:none;stroke:#008000;stroke-width:1.5;stroke-linecap:square;stroke-linejoin:round;stroke-miterlimit:10;stroke-dasharray:none;stroke-opacity:0.72000002"
           d="m 226.57024,213.84 3.95495,0.28492 6.67763,0.7029 10.67384,1.49881 15.62988,2.79834 20.14584,4.51123 22.03514,6.17877 20.07274,7.20181 15.31825,7.35319 9.99292,6.90001 5.62289,6.2462 2.59179,5.6456 0.66673,5.18125 -0.51326,4.84664 -1.23911,4.60843 -1.70188,4.43397 -2.01595,4.29871 -2.24667,4.1862 -2.43041,4.08593 -2.58722,3.99149 -2.72801,3.89899 -2.85869,3.80614 -2.98249,3.71162 -3.10106,3.61467 -3.21534,3.51488 -3.32573,3.41208 -3.43245,3.30616 -3.53556,3.19714 -3.63505,3.08506 -3.73088,2.97 -3.823,2.85203 -3.9113,2.73128 -3.99574,2.60784 -4.07623,2.48184 -4.15268,2.3534 -4.22505,2.22263 -4.29322,2.08967 -4.35718,1.95465 -4.41682,1.81771 -4.47211,1.67897 -4.52298,1.53858 -4.5694,1.39666 -4.61129,1.25337 -4.64865,1.10884 -4.6814,0.96322 -4.70955,0.81664 -4.73304,0.66927 -4.75187,0.52123 -4.766,0.37267 -4.77542,0.22375 -4.78015,0.0746 -4.78015,-0.0746 -4.77543,-0.22375 -4.76599,-0.37267 -4.75187,-0.52123 -4.73304,-0.66926 -4.70955,-0.81665 -4.68141,-0.96322 -4.64864,-1.10884 -4.61129,-1.25337 -4.5694,-1.39666 -4.52298,-1.53857 -4.47211,-1.67897 -4.41683,-1.8177 -4.35718,-1.95465 -4.29323,-2.08967 -4.22505,-2.22261 -4.1527,-2.35338 -4.07624,-2.48181 -3.99578,-2.6078 -3.91136,-2.73121 -3.82308,-2.85194 -3.73103,-2.96983 -3.63529,-3.08482 -3.53598,-3.19674 -3.43317,-3.30551 -3.32697,-3.41103 -3.21747,-3.51318 -3.10481,-3.61188 -2.98903,-3.70702 -2.870209,-3.79858 -2.748185,-3.88662 -2.622206,-3.97154 -2.489272,-4.05488 -2.338434,-4.1419 -2.130293,-4.25014 -1.72415,-4.43698 -0.626224,-4.88582 2.786966,-6.13595 12.70315,-9.36025 32.287457,-14.68869 43.85168,-15.73391 29.24238,-9.00875 11.69344,-3.1557 5.51598,-1.20656 1.33662,-0.0565 3.5486,0.10137 v 0" /></g></g><g
       id="g214"><g
         clip-path="url(#clipPath220)"
         id="g216"><path
           id="path222"
           style="fill:none;stroke:#ff0000;stroke-width:1.5;stroke-linecap:square;stroke-linejoin:round;stroke-miterlimit:10;stroke-dasharray:none;stroke-opacity:0.72000002"
           d="m 221.40003,213.84 -0.14809,0.075 -1.71799,0.72735 -4.61428,1.74689 -14.39006,4.91614 -33.83388,10.19449 -45.25873,11.19475 -30.507361,4.4284 -12.812249,-1.46214 -4.676776,-3.77816 -1.90979,-4.45887 -0.986388,-4.64926 -0.614352,-4.70879 -0.400951,-4.73249 -0.232712,-4.74405 -0.07729,-4.74921 0.07444,-4.7493 0.225005,-4.74462 0.375031,-4.73525 0.524591,-4.72121 0.673605,-4.70251 0.821945,-4.67916 0.969472,-4.65121 1.11604,-4.61865 1.261507,-4.58155 1.405729,-4.53991 1.548564,-4.4938 1.68987,-4.44326 1.829508,-4.38833 1.967342,-4.32907 2.103233,-4.26553 2.237049,-4.1978 2.368657,-4.1259 2.497928,-4.04995 2.624733,-3.97 2.748949,-3.88612 2.870451,-3.79842 2.98912,-3.70696 3.10484,-3.61184 3.2175,-3.51317 3.32697,-3.41102 3.43318,-3.30552 3.53598,-3.19673 3.6353,-3.084812 3.73103,-2.969836 3.82308,-2.851932 3.91136,-2.731213 3.99577,-2.607799 4.07625,-2.481812 4.1527,-2.353376 4.22505,-2.222616 4.29323,-2.089664 4.35718,-1.954649 4.41683,-1.817706 4.47211,-1.678967 4.52298,-1.538573 4.5694,-1.39666 4.61129,-1.253369 4.64864,-1.10884 4.68141,-0.963218 4.70955,-0.816645 4.73304,-0.669266 4.75187,-0.521226 4.76599,-0.372672 4.77543,-0.223751 L 221.4,62.64 l 4.78015,0.07461 4.77542,0.223751 4.766,0.372673 4.75187,0.521228 4.73304,0.669268 4.70955,0.816649 4.6814,0.963226 4.64864,1.108857 4.61128,1.253398 4.56938,1.396717 4.52294,1.538683 4.47201,1.679184 4.41663,1.818133 4.35674,1.955502 4.29228,2.091383 4.22298,2.226109 4.14815,2.360524 4.06623,2.496543 3.97358,2.638335 3.86204,2.794815 3.71321,2.984885 3.48593,3.248244 3.08947,3.666993 2.32895,4.4055 0.81085,5.76923 -2.15234,8.23142 -7.36345,12.19351 -14.59721,17.03432 -20.72606,20.00595 -21.26892,18.18218 -16.25121,12.68386 -9.97041,7.19958 -8.01353,5.25894 -2.44556,1.3358 v 0" /></g></g><g
       id="g224"><g
         clip-path="url(#clipPath230)"
         id="g226"><path
           id="path232"
           style="fill:none;stroke:#000000;stroke-width:1.5;stroke-linecap:square;stroke-linejoin:round;stroke-miterlimit:10;stroke-dasharray:none;stroke-opacity:1"
           d="m 373.58182,213.84 -0.0751,4.74931 -0.22521,4.74462 -0.37509,4.73525 -0.52461,4.7212 -0.67361,4.70251 -0.82195,4.67916 -0.96947,4.65121 -1.11604,4.61865 -1.26151,4.58154 -1.40573,4.53992 -1.54856,4.4938 -1.68987,4.44326 -1.82951,4.38833 -1.96734,4.32907 -2.10324,4.26553 -2.23705,4.1978 -2.36865,4.1259 -2.49793,4.04995 -2.62473,3.97 -2.74895,3.88612 -2.87045,3.79842 -2.98912,3.70696 -3.10484,3.61184 -3.2175,3.51317 -3.32697,3.41102 -3.43318,3.30552 -3.53598,3.19673 -3.6353,3.08481 -3.73103,2.96984 -3.82308,2.85193 -3.91136,2.73121 -3.99577,2.6078 -4.07625,2.48181 -4.1527,2.35338 -4.22505,2.22262 -4.29323,2.08966 -4.35718,1.95465 -4.41683,1.8177 -4.47211,1.67897 -4.52298,1.53857 -4.5694,1.39666 -4.61129,1.25337 -4.64864,1.10884 -4.68141,0.96322 -4.70955,0.81665 -4.73304,0.66926 -4.75187,0.52123 -4.766,0.37267 -4.77542,0.22375 -4.78015,0.0746 -4.78015,-0.0746 -4.77543,-0.22375 -4.76599,-0.37267 -4.75187,-0.52123 -4.73304,-0.66926 -4.70955,-0.81665 -4.68141,-0.96322 -4.64864,-1.10884 -4.61129,-1.25337 -4.5694,-1.39666 -4.52298,-1.53857 -4.47211,-1.67897 -4.41683,-1.8177 -4.35718,-1.95465 -4.29323,-2.08966 -4.22505,-2.22262 -4.1527,-2.35338 -4.07625,-2.48181 -3.99577,-2.6078 -3.91136,-2.73121 -3.82308,-2.85193 -3.73103,-2.96984 -3.6353,-3.08481 -3.53598,-3.19673 -3.43318,-3.30552 -3.32697,-3.41102 -3.2175,-3.51317 -3.10484,-3.61184 -2.98912,-3.70696 -2.870447,-3.79842 -2.748949,-3.88612 -2.624733,-3.97 -2.497928,-4.04995 -2.368657,-4.1259 -2.237049,-4.1978 -2.103233,-4.26553 -1.967342,-4.32907 -1.829508,-4.38833 -1.68987,-4.44326 -1.548564,-4.4938 -1.405729,-4.53992 -1.261508,-4.58154 -1.11604,-4.61865 -0.969473,-4.65121 -0.821947,-4.67916 -0.673612,-4.70251 -0.524611,-4.7212 -0.375092,-4.73525 -0.225204,-4.74462 -0.07509,-4.74931 0.07509,-4.74931 0.225204,-4.74462 0.375092,-4.73525 0.524611,-4.72121 0.673612,-4.7025 0.821947,-4.67917 0.969473,-4.6512 1.11604,-4.61865 1.261508,-4.58155 1.405729,-4.53991 1.548564,-4.4938 1.68987,-4.44326 1.829508,-4.38833 1.967342,-4.32907 2.103233,-4.26553 2.237049,-4.1978 2.368657,-4.1259 2.497928,-4.04995 2.624733,-3.97 2.748949,-3.88612 2.870447,-3.79842 2.98912,-3.70696 3.10484,-3.61184 3.2175,-3.51317 3.32697,-3.41102 3.43318,-3.30552 3.53598,-3.19673 3.6353,-3.084812 3.73103,-2.969836 3.82308,-2.851932 3.91136,-2.731213 3.99577,-2.607799 4.07625,-2.481812 4.1527,-2.353376 4.22505,-2.222616 4.29323,-2.089664 4.35718,-1.954649 4.41683,-1.817706 4.47211,-1.678967 4.52298,-1.538573 4.5694,-1.39666 4.61129,-1.253369 4.64864,-1.10884 4.68141,-0.963218 4.70955,-0.816645 4.73304,-0.669266 4.75187,-0.521226 4.76599,-0.372672 4.77543,-0.223751 L 221.4,62.64 l 4.78015,0.07461 4.77542,0.223751 4.766,0.372672 4.75187,0.521226 4.73304,0.669266 4.70955,0.816645 4.68141,0.963218 4.64864,1.10884 4.61129,1.253369 4.5694,1.39666 4.52298,1.538573 4.47211,1.678967 4.41683,1.817706 4.35718,1.954649 4.29323,2.089664 4.22505,2.222616 4.1527,2.353376 4.07625,2.481812 3.99577,2.607799 3.91136,2.731213 3.82308,2.851932 3.73103,2.969836 3.6353,3.08481 3.53598,3.19673 3.43318,3.30552 3.32697,3.41102 3.2175,3.51317 3.10484,3.61184 2.98912,3.70696 2.87045,3.79842 2.74895,3.88612 2.62473,3.97 2.49793,4.04995 2.36865,4.1259 2.23705,4.1978 2.10324,4.26553 1.96734,4.32907 1.82951,4.38833 1.68987,4.44326 1.54856,4.4938 1.40573,4.53991 1.26151,4.58155 1.11604,4.61865 0.96947,4.6512 0.82195,4.67917 0.67361,4.7025 0.52461,4.72121 0.37509,4.73525 0.22521,4.74462 0.0751,4.74931 v 0" /></g></g></g></svg>